/* XPM */
static char *result[] = {
/* columns rows colors chars-per-pixel */
"64 64 188 2 ",
"   c #000103",
".  c #010203",
"X  c #020203",
"o  c gray1",
"O  c #040303",
"+  c #010204",
"@  c #020304",
"#  c #020205",
"$  c #020305",
"%  c #030305",
"&  c #040305",
"*  c #050405",
"=  c #060405",
"-  c #0C0804",
";  c #0D0804",
":  c #0E0904",
">  c #0E0A05",
",  c #0F0A05",
"<  c #0E0906",
"1  c #0F0A06",
"2  c #110A04",
"3  c #110B04",
"4  c #130B04",
"5  c #100A06",
"6  c #130B06",
"7  c #130C05",
"8  c #130C06",
"9  c #101113",
"0  c #111113",
"q  c #131213",
"w  c #141313",
"e  c #111214",
"r  c #141314",
"t  c #151314",
"y  c #151414",
"u  c #151415",
"i  c #1D1713",
"p  c #1E1814",
"a  c #151518",
"s  c #161618",
"d  c #17171A",
"f  c #181718",
"g  c #191718",
"h  c #17181A",
"j  c #191819",
"k  c #18181A",
"l  c #18191B",
"z  c #19191B",
"x  c #1A191A",
"c  c #1B191A",
"v  c #1B1A1B",
"b  c #1C1A1B",
"n  c #201B17",
"m  c #221C17",
"M  c #221D19",
"N  c #231D19",
"B  c #231E19",
"V  c #251D18",
"C  c #241E19",
"Z  c #271F19",
"A  c #251F1A",
"S  c #282019",
"D  c #29211A",
"F  c #202122",
"G  c #212122",
"H  c #222122",
"J  c #212223",
"K  c #232222",
"L  c #222223",
"P  c #232223",
"I  c #242222",
"U  c #242323",
"Y  c #252323",
"T  c #2A2521",
"R  c #2B2621",
"E  c #2B2622",
"W  c #2C2621",
"Q  c #2F2721",
"!  c #2D2722",
"~  c #302721",
"^  c #302822",
"/  c #322922",
"(  c #332922",
")  c #7F470E",
"_  c #854A0D",
"`  c #874B0D",
"'  c #874B0F",
"]  c #894C0F",
"[  c #8A4D0F",
"{  c #8D4E0E",
"}  c #8E4E0E",
"|  c #8E4F0E",
" . c #904F0E",
".. c #90500E",
"X. c #91500E",
"o. c #92500E",
"O. c #93510E",
"+. c #93510F",
"@. c #94510E",
"#. c #94510F",
"$. c #94520F",
"%. c #9B550E",
"&. c #9C550E",
"*. c #9C560E",
"=. c #9D560E",
"-. c #9F570E",
";. c #9E570F",
":. c #9D5710",
">. c #9E5710",
",. c #9E5810",
"<. c #9F5810",
"1. c #A0570E",
"2. c #A0580E",
"3. c #A55A0F",
"4. c #A55B0F",
"5. c #A65B0F",
"6. c #A75B0F",
"7. c #A65C0F",
"8. c #A75C0F",
"9. c #A85C0F",
"0. c #A95D0F",
"q. c #AA5D0F",
"w. c #AB5D0F",
"e. c #AA5E0F",
"r. c #AB5E0F",
"t. c #AD5F0F",
"y. c #AE5F0F",
"u. c #A15810",
"i. c #A15910",
"p. c #A25910",
"a. c #A25A10",
"s. c #AE600F",
"d. c #BE6B13",
"f. c #C56910",
"g. c #C56A10",
"h. c #C76B10",
"j. c #C06C13",
"k. c #C16C13",
"l. c #C26D13",
"z. c #C36D13",
"x. c #C46D13",
"c. c #C76C12",
"v. c #C86B10",
"b. c #C96B10",
"n. c #C96C10",
"m. c #C96D11",
"M. c #C96D12",
"N. c #C96E12",
"B. c #CB6E12",
"V. c #CE6C12",
"C. c #CE6D12",
"Z. c #D27111",
"A. c #D37111",
"S. c #D47311",
"D. c #D57311",
"F. c #D67211",
"G. c #D67311",
"H. c #D77311",
"J. c #D67411",
"K. c #D77411",
"L. c #DA7211",
"P. c #DA7311",
"I. c #DB7311",
"U. c #D87411",
"Y. c #D97511",
"T. c #DA7411",
"R. c #DA7511",
"E. c #DB7511",
"W. c #DB7611",
"Q. c #DE7511",
"!. c #DF7511",
"~. c #DC7413",
"^. c #DD7413",
"/. c #DC7513",
"(. c #E17613",
"). c #E17713",
"_. c #E97A12",
"`. c #E97B12",
"'. c #EA7A12",
"]. c #EA7B12",
"[. c #EB7B12",
"{. c #ED7C12",
"}. c #ED7D12",
"|. c #EE7C12",
" X c #EE7D12",
".X c #EF7D12",
"XX c #F27F12",
"oX c #F37F12",
/* pixels */
"[.[.[.'.K.G.G.G.G.G.G.G.G.G.G.G.G.G.G.G.G.G.H.A.r.6.w.>.C k h S ^..X].'.K.G.G.G.G.G.G.G.G.G.G.G.G.G.G.G.G.G.H.A.r.6.w.>.C k c x ",
"[.[.[.'.K.G.G.G.G.G.G.G.G.G.G.G.G.G.G.G.G.G.H.A.r.6.w.>.C k h S ^..X].'.K.G.G.G.G.G.G.G.G.G.G.G.G.G.G.G.G.G.H.A.r.6.w.>.C k c x ",
"[.[.[.'.K.G.G.G.G.G.G.G.G.G.G.G.G.G.G.G.G.G.H.A.r.6.w.>.C k h S ^..X].'.K.G.G.G.G.G.G.G.G.G.G.G.G.G.G.G.G.G.H.A.r.6.w.>.C k c x ",
"'.'.'._.J.D.D.D.D.D.D.D.D.D.D.D.D.D.D.D.D.D.G.Z.r.6.w.>.A z l D ~.{._._.J.D.D.D.D.D.D.D.D.D.D.D.D.D.D.D.D.D.G.Z.r.6.w.>.A z b v ",
"K.K.K.G.x.z.z.z.z.z.z.z.z.z.z.z.z.z.z.z.z.z.z.k.q.6.q.<.W G F Q B.R.K.G.x.z.z.z.z.z.z.z.z.z.z.z.z.z.z.z.z.z.z.k.q.6.q.<.W G I K ",
"D.D.D.S.z.l.l.l.l.l.l.l.l.l.l.l.l.l.l.l.l.l.l.j.q.6.q.<.! L J ^ N.U.D.S.z.l.l.l.l.l.l.l.l.l.l.l.l.l.l.l.l.l.l.j.q.6.q.<.! L Y U ",
"H.H.H.G.x.z.z.z.z.z.z.z.z.z.z.z.z.z.z.z.z.z.z.k.q.6.q.<.! L J ^ B.T.H.G.x.z.z.z.z.z.z.z.z.z.z.z.z.z.z.z.z.z.z.k.q.6.q.<.! L Y U ",
"A.A.A.Z.k.j.j.j.j.j.j.j.j.j.j.j.j.j.j.j.j.j.j.d.9.3.9.:.! L J ^ c.F.A.Z.k.j.j.j.j.j.j.j.j.j.j.j.j.j.j.j.j.j.j.d.9.3.9.:.! L Y U ",
"r.r.r.r.q.q.q.q.q.q.q.q.q.q.q.q.q.q.q.q.q.q.q.9.O...O.[ E P L ! p.t.e.r.q.q.q.q.q.q.q.q.q.q.q.q.q.q.q.q.q.q.q.9.O...O.[ E L U U ",
"5.5.5.5.6.6.6.6.6.6.6.6.6.6.6.6.6.6.6.6.6.6.6.3. .{  .' E P L ! >.9.4.5.6.6.6.6.6.6.6.6.6.6.6.6.6.6.6.6.6.6.6.3. .{  .' E L U U ",
"r.r.r.r.r.r.r.r.r.r.r.r.w.w.w.w.r.r.r.r.r.r.r.0.@.X.@.[ E P L ! a.t.e.r.r.r.r.r.r.r.r.r.w.w.w.w.r.r.r.r.r.r.r.0.@.X.@.[ E L U U ",
"=.=.=.=.=.=.=.=.=.=.=.=.;.;.;.;.=.=.=.=.=.=.=.%.` _ ` ) T H G W $.-.*.=.=.=.=.=.=.=.=.=.;.;.;.;.=.=.=.=.=.=.=.%.` _ ` ) T G K K ",
": : : : : : : : : : : , i p p i , : : : : : : : ; - ; < j v v j 1 : : : : : : : : : : , i p p i , : : : : : : : ; - ; < j v v v ",
". . . . . . . . . . . @ 9 e e 9 @ . . . . . . . . X . & g c c f % . . . . . . . . . . @ 9 e e 9 @ . . . . . . . . X . & f x x x ",
"                . . . @ q t t q +                     # a d d a #               . . . @ q t t q +                     # s k k k ",
"4 4 4 4 3 3 3 2 : : : > w r r w 7 4 4 4 3 3 3 3 3 3 3 8 V Z Z V 8 3 3 3 3 3 3 2 : : : > w r r w 7 4 4 4 3 3 3 3 3 3 3 6 m C C C ",
"I.I.I.L.n.h.b.f.2.&.1.+.N k h Z V.!.P.L.n.v.v.v.v.v.v.v.m.M.M.m.v.v.v.v.v.v.b.f.2.&.1.+.N k h Z V.!.P.L.n.v.v.v.v.v.b.g.i.:.>.>.",
".X.X.X|.W.Y.E.H.s.q.y.u.C k h S (.oX X|.W.R.R.R.R.R.R.R.Y.Y.Y.Y.R.R.R.R.R.R.E.H.s.q.y.u.C k h S (.oX X|.W.R.R.R.R.R.E.H.y.0.q.q.",
"].].]._.J.S.G.Z.e.5.q.:.C k h S ~. X`._.J.D.D.D.D.D.D.D.G.G.G.G.D.D.D.D.D.D.G.Z.e.5.q.:.C k h S ~. X`._.J.D.D.D.D.D.G.Z.e.7.8.8.",
"'.'.'._.J.S.G.Z.r.6.w.>.A z l D ~.{._._.J.D.D.D.D.D.D.D.D.D.D.D.D.D.D.D.D.D.G.Z.r.6.w.>.A z l D ~.{._._.J.D.D.D.D.D.G.Z.r.8.9.9.",
"K.K.K.G.x.z.x.k.q.6.q.<.W G F Q B.R.K.G.x.z.z.z.z.z.z.z.z.z.z.z.z.z.z.z.z.z.z.k.q.6.q.<.W G F Q B.R.K.G.x.z.z.z.z.z.z.k.q.9.9.9.",
"D.D.D.S.z.l.z.j.q.6.q.<.! L J ^ N.U.D.S.z.l.l.l.l.l.l.l.l.l.l.l.l.l.l.l.l.l.l.j.q.6.q.<.! L J ^ N.U.D.S.z.l.l.l.l.l.l.j.q.9.9.9.",
"H.H.H.G.x.z.x.k.q.6.q.<.! L J ^ B.T.H.G.x.z.z.z.z.z.z.z.z.z.z.z.z.z.z.z.z.z.z.k.q.6.q.<.! L J ^ B.T.H.G.x.z.z.z.z.z.z.k.q.9.9.9.",
"A.A.A.Z.k.j.k.d.9.3.9.:.! L J ^ c.F.A.Z.k.j.j.j.j.j.j.j.j.j.j.j.j.j.j.j.j.j.j.d.9.3.9.:.! L J ^ c.F.A.Z.k.j.j.j.j.j.j.d.9.5.5.5.",
"r.r.r.r.q.q.q.9.O...O.[ E P L ! p.t.e.r.q.q.q.q.q.q.q.q.q.q.q.q.q.q.q.q.q.q.q.9.O...O.[ E P L ! p.t.e.r.q.q.q.q.q.q.q.9.O.X.X.X.",
"5.5.5.5.6.6.6.3. .{  .' E P L ! >.9.4.5.6.6.6.6.6.6.6.6.6.6.6.6.6.6.6.6.6.6.6.3. .{  .' E P L ! >.9.4.5.6.6.6.6.6.6.6.3...| | | ",
"r.r.r.r.r.r.r.0.@.X.@.[ E P L ! a.t.e.r.r.r.r.r.r.r.r.r.w.w.w.w.r.r.r.r.r.r.r.0.@.X.@.[ E P L ! a.t.e.r.r.r.r.r.r.r.r.0.O.X.X.X.",
"=.=.=.=.=.=.=.%.` _ ` ) T H G W $.-.*.=.=.=.=.=.=.=.=.=.;.;.;.;.=.=.=.=.=.=.=.%.` _ ` ) T H G W $.-.*.=.=.=.=.=.=.=.=.%.] ' ' ' ",
": : : : : : : : ; - ; < j v v j 1 : : : : : : : : : : , i p p i , : : : : : : : ; - ; < j v v j 1 : : : : : : : : : : 5 n M M M ",
". . . . . . . . . X . & g c c f % . . . . . . . . . . @ 0 e e 0 @ . . . . . . . . X . & g c c f % . . . . . . . . . . % s k k k ",
"                      # a d d a #               . . . @ q r r q +                     # a d d a #               . . . % f c c c ",
"4 4 4 4 3 3 3 3 3 3 3 8 V Z Z V 8 3 3 3 3 3 3 2 : : : , t u u y 7 4 4 4 3 3 3 3 3 3 3 8 V Z Z V 8 3 3 3 3 3 3 2 : : : 1 g x x x ",
"I.I.I.L.n.v.v.v.v.v.v.v.m.M.M.m.v.v.v.v.v.v.b.f.2.&.1.$.R H F ~ C.Q.P.L.n.v.v.v.v.v.v.v.m.M.M.m.v.v.v.v.v.v.b.f.2.&.1.#.B k c x ",
".X.X.X|.W.R.R.R.R.R.R.R.Y.Y.Y.Y.R.R.R.R.R.R.E.H.s.q.y.p.! P J ( ).XX X|.W.R.R.R.R.R.R.R.Y.Y.Y.Y.R.R.R.R.R.R.E.H.s.q.y.u.C k c x ",
"].].]._.J.D.D.D.D.D.D.D.G.G.G.G.D.D.D.D.D.D.G.Z.e.5.q.,.! P J / /.}.`._.J.D.D.D.D.D.D.D.G.G.G.G.D.D.D.D.D.D.G.Z.e.5.q.:.C k c x ",
"'.'.'._.J.D.D.D.D.D.D.D.D.D.D.D.D.D.D.D.D.D.G.Z.r.6.w.<.! P J / /.{._._.J.D.D.D.D.D.D.D.D.D.D.D.D.D.D.D.D.D.G.Z.r.6.w.>.A z b v ",
"K.K.K.G.x.z.z.z.z.z.z.z.z.z.z.z.z.z.z.z.z.z.z.k.q.6.q.<.! L J ^ B.R.K.G.x.z.z.z.z.z.z.z.z.z.z.z.z.z.z.z.z.z.z.k.q.6.q.<.W G I K ",
"D.D.D.S.z.l.l.l.l.l.l.l.l.l.l.l.l.l.l.l.l.l.l.j.q.6.q.<.! L J ^ N.U.D.S.z.l.l.l.l.l.l.l.l.l.l.l.l.l.l.l.l.l.l.j.q.6.q.<.! L Y U ",
"H.H.H.G.x.z.z.z.z.z.z.z.z.z.z.z.z.z.z.z.z.z.z.k.q.6.q.<.! L J ^ B.T.H.G.x.z.z.z.z.z.z.z.z.z.z.z.z.z.z.z.z.z.z.k.q.6.q.<.! L Y U ",
"A.A.A.Z.k.j.j.j.j.j.j.j.j.j.j.j.j.j.j.j.j.j.j.d.9.3.9.:.! L J ^ c.F.A.Z.k.j.j.j.j.j.j.j.j.j.j.j.j.j.j.j.j.j.j.d.9.3.9.:.! L Y U ",
"r.r.r.r.q.q.q.q.q.q.q.q.q.q.q.q.q.q.q.q.q.q.q.9.O...O.[ E P L ! p.t.e.r.q.q.q.q.q.q.q.q.q.q.q.q.q.q.q.q.q.q.q.9.O...O.[ E L U U ",
"5.5.5.5.6.6.6.6.6.6.6.6.6.6.6.6.6.6.6.6.6.6.6.3. .{  .' E P L ! >.9.4.5.6.6.6.6.6.6.6.6.6.6.6.6.6.6.6.6.6.6.6.3. .{  .' E L U U ",
"r.r.r.r.r.r.r.r.r.r.r.r.w.w.w.w.r.r.r.r.r.r.r.0.@.X.@.[ E P L ! a.t.e.r.r.r.r.r.r.r.r.r.w.w.w.w.r.r.r.r.r.r.r.0.@.X.@.[ E L U U ",
"=.=.=.=.=.=.=.=.=.=.=.=.;.;.;.;.=.=.=.=.=.=.=.%.` _ ` ) T H G W $.-.*.=.=.=.=.=.=.=.=.=.;.;.;.;.=.=.=.=.=.=.=.%.` _ ` ) T G K K ",
": : : : : : : : : : : , i p p i , : : : : : : : ; - ; < j v v j 1 : : : : : : : : : : , i p p i , : : : : : : : ; - ; < j v v v ",
". . . . . . . . . . . @ 9 e e 9 @ . . . . . . . . X . & g c c f % . . . . . . . . . . @ 9 e e 9 @ . . . . . . . . X . & f x x x ",
"                . . . @ q t t q +                     # a d d a #               . . . @ q t t q +                     # s k k k ",
"4 4 4 4 3 3 3 2 : : : > w r r w 7 4 4 4 3 3 3 3 3 3 3 8 V Z Z V 8 3 3 3 3 3 3 2 : : : > w r r w 7 4 4 4 3 3 3 3 3 3 3 6 m C C C ",
"I.I.I.L.n.h.b.f.2.&.1.+.N k h Z V.!.P.L.n.v.v.v.v.v.v.v.m.M.M.m.v.v.v.v.v.v.b.f.2.&.1.+.N k h Z V.!.P.L.n.v.v.v.v.v.b.g.i.:.>.>.",
".X.X.X|.W.Y.E.H.s.q.y.u.C k h S (.oX X|.W.R.R.R.R.R.R.R.Y.Y.Y.Y.R.R.R.R.R.R.E.H.s.q.y.u.C k h S (.oX X|.W.R.R.R.R.R.E.H.y.0.q.q.",
"].].]._.J.S.G.Z.e.5.q.:.C k h S ~. X`._.J.D.D.D.D.D.D.D.G.G.G.G.D.D.D.D.D.D.G.Z.e.5.q.:.C k h S ~. X`._.J.D.D.D.D.D.G.Z.e.7.8.8.",
"'.'.'._.J.S.G.Z.r.6.w.>.A z l D ~.{._._.J.D.D.D.D.D.D.D.D.D.D.D.D.D.D.D.D.D.G.Z.r.6.w.>.A z l D ~.{._._.J.D.D.D.D.D.G.Z.r.8.9.9.",
"K.K.K.G.x.z.x.k.q.6.q.<.W G F Q B.R.K.G.x.z.z.z.z.z.z.z.z.z.z.z.z.z.z.z.z.z.z.k.q.6.q.<.W G F Q B.R.K.G.x.z.z.z.z.z.z.k.q.9.9.9.",
"D.D.D.S.z.l.z.j.q.6.q.<.! L J ^ N.U.D.S.z.l.l.l.l.l.l.l.l.l.l.l.l.l.l.l.l.l.l.j.q.6.q.<.! L J ^ N.U.D.S.z.l.l.l.l.l.l.j.q.9.9.9.",
"H.H.H.G.x.z.x.k.q.6.q.<.! L J ^ B.T.H.G.x.z.z.z.z.z.z.z.z.z.z.z.z.z.z.z.z.z.z.k.q.6.q.<.! L J ^ B.T.H.G.x.z.z.z.z.z.z.k.q.9.9.9.",
"A.A.A.Z.k.j.k.d.9.3.9.:.! L J ^ c.F.A.Z.k.j.j.j.j.j.j.j.j.j.j.j.j.j.j.j.j.j.j.d.9.3.9.:.! L J ^ c.F.A.Z.k.j.j.j.j.j.j.d.9.5.5.5.",
"r.r.r.r.q.q.q.9.O...O.[ E P L ! p.t.e.r.q.q.q.q.q.q.q.q.q.q.q.q.q.q.q.q.q.q.q.9.O...O.[ E P L ! p.t.e.r.q.q.q.q.q.q.q.9.O.X.X.X.",
"5.5.5.5.6.6.6.3. .{  .' E P L ! >.9.4.5.6.6.6.6.6.6.6.6.6.6.6.6.6.6.6.6.6.6.6.3. .{  .' E P L ! >.9.4.5.6.6.6.6.6.6.6.3. .} } } ",
"r.r.r.r.r.r.r.0.@.X.@.[ E P L ! a.t.e.r.r.r.r.r.r.r.r.r.r.r.r.r.r.r.r.r.r.r.r.0.@.X.@.[ E P L ! a.t.e.r.r.r.r.r.r.r.r.0.@.o.o.o.",
"=.=.=.=.=.=.=.%.` _ ` ) T H G W $.-.*.=.=.=.=.=.=.=.=.=.=.=.=.=.=.=.=.=.=.=.=.%.` _ ` ) T H G W $.-.*.=.=.=.=.=.=.=.=.%.` _ _ _ ",
": : : : : : : : ; - ; < j v v j 1 : : : : : : : : : : : : : : : : : : : : : : : ; - ; < j v v j 1 : : : : : : : : : : : ; ; ; ; ",
"                . . . % f x x f $                                               . . . % f x x f $                       . . . . ",
"O O O O O O O O O O O = f x x f = O O O O O O O O O O O O O O O O O O O O O O O O O O = f x x f = O O O O O O O O O O O O O O O ",
"o o o o o o o o o o o * f x x f * o o o o o o o o o o o o o o o o o o o o o o o o o o * f x x f * o o o o o o o o o o o o o o o "
};
