/* XPM */
static char *result[] = {
/* columns rows colors chars-per-pixel */
"64 64 216 2 ",
"   c #473F27",
".  c #5B480D",
"X  c #644F0D",
"o  c #6B540B",
"O  c #795E09",
"+  c #6A5411",
"@  c #735C13",
"#  c #7B6308",
"$  c #7D6517",
"%  c #5E553A",
"&  c #685826",
"*  c #655C37",
"=  c #746733",
"-  c #75683E",
";  c #7C6C3C",
":  c #635E50",
">  c #6D664C",
",  c #7F7043",
"<  c #736B56",
"1  c #7E7453",
"2  c #7A725B",
"3  c #716F68",
"4  c #797568",
"5  c #7E7D77",
"6  c #86690C",
"7  c #967607",
"8  c #9F7A02",
"9  c #9C7A0D",
"0  c #816514",
"q  c #856A15",
"w  c #8A6D16",
"e  c #866C19",
"r  c #8D7213",
"t  c #8C721C",
"y  c #927414",
"u  c #9B7B12",
"i  c #937619",
"p  c #94791A",
"a  c #9D7E1B",
"s  c #A07E01",
"d  c #A97F02",
"f  c #A07C0A",
"g  c #A17F15",
"h  c #8E7625",
"j  c #977D21",
"k  c #977C26",
"l  c #957C2C",
"z  c #8A7636",
"x  c #937C32",
"c  c #957F38",
"v  c #817244",
"b  c #897A47",
"n  c #917D44",
"m  c #877A53",
"M  c #827E72",
"N  c #9E811B",
"B  c #A38204",
"V  c #AC8303",
"C  c #A7820D",
"Z  c #BC9504",
"A  c #B09009",
"S  c #A48316",
"D  c #AB8712",
"F  c #A4831A",
"G  c #AA871C",
"H  c #AC8A1C",
"J  c #B18D15",
"K  c #B18D1C",
"L  c #BB9716",
"P  c #B6931E",
"I  c #BB941C",
"U  c #9C8224",
"Y  c #9D852B",
"T  c #988239",
"R  c #A18423",
"E  c #A68A26",
"W  c #AB8C22",
"Q  c #A78829",
"!  c #B08E22",
"~  c #AC912B",
"^  c #B39526",
"/  c #BB9A23",
"(  c #A28B3D",
")  c #B89C34",
"_  c #C79E06",
"`  c #C79C19",
"'  c #C39C1D",
"]  c #CEA404",
"[  c #D3A501",
"{  c #D3A900",
"}  c #DFAF00",
"|  c #D2A70D",
" . c #DBAC0B",
".. c #DDB50F",
"X. c #CCA31E",
"o. c #CEA81B",
"O. c #D6AA19",
"+. c #D6AA1E",
"@. c #DEB41A",
"#. c #E2B200",
"$. c #EAB809",
"%. c #F3BB04",
"&. c #EDBC17",
"*. c #F5BF14",
"=. c #C49F21",
"-. c #C5A322",
";. c #CBA321",
":. c #C1A826",
">. c #CDA923",
",. c #D1A621",
"<. c #D4AB22",
"1. c #DAAE23",
"2. c #D2AE29",
"3. c #DCB223",
"4. c #D8B627",
"5. c #E3B524",
"6. c #E4BB24",
"7. c #EABC25",
"8. c #E8BD28",
"9. c #EABF2F",
"0. c #F6C200",
"q. c #FEC400",
"w. c #F6CA01",
"e. c #FFC901",
"r. c #F7C108",
"t. c #FDC50C",
"y. c #FECC0B",
"u. c #ECC81B",
"i. c #F4C416",
"p. c #FBC612",
"a. c #FECB11",
"s. c #F5C61B",
"d. c #F5C81B",
"f. c #FCCA1D",
"g. c #FFD113",
"h. c #EAC126",
"j. c #EAC228",
"k. c #F4C426",
"l. c #FAC527",
"z. c #F4C927",
"x. c #FDCC25",
"c. c #F3C629",
"v. c #F6CA29",
"b. c #FDCC2A",
"n. c #FFD325",
"m. c #FED22A",
"M. c #ECC639",
"N. c #FDD533",
"B. c #F9D43B",
"V. c #FEDA3C",
"C. c #968347",
"Z. c #8E8157",
"A. c #948559",
"S. c #A58E44",
"D. c #AA954B",
"F. c #AC9953",
"G. c #B39E55",
"H. c #B8A559",
"J. c #8B836B",
"K. c #968A67",
"L. c #858279",
"P. c #968D75",
"I. c #9B937B",
"U. c #D4B644",
"Y. c #CAB35D",
"T. c #D8BE63",
"R. c #EBCA40",
"E. c #EFCD48",
"W. c #FFD641",
"Q. c #FFD945",
"!. c #FFDB4A",
"~. c #FAD752",
"^. c #FDDC53",
"/. c #F6DC5D",
"(. c #D6C264",
"). c #DEC564",
"_. c #EBCE63",
"`. c #E6CD69",
"'. c #EFD363",
"]. c #E9D169",
"[. c #858484",
"{. c #908D86",
"}. c #9A9486",
"|. c #95918B",
" X c #8F9096",
".X c #959596",
"XX c #9F9A92",
"oX c #9C9C9C",
"OX c #A19D96",
"+X c #A5A19B",
"@X c #A9A498",
"#X c #A5A4A4",
"$X c #A7A7A7",
"%X c #ABA9A6",
"&X c #ACABAC",
"*X c #B2B1AF",
"=X c #B0AFB1",
"-X c #B4B3B2",
";X c #BDBAB7",
":X c #B8B7B9",
">X c #BDBCBB",
",X c #C1BEBC",
"<X c #C4C1BE",
"1X c #BDBDC0",
"2X c #C6C4C2",
"3X c #C9C6C3",
"4X c #CBC9C6",
"5X c #C9C7C8",
"6X c #CDCCCA",
"7X c #D0CBC7",
"8X c #D0CFCC",
"9X c #D2D1CE",
"0X c #D5D4D2",
"qX c #D8D7D5",
"wX c #D9D8D6",
"eX c #DCDBD9",
/* pixels */
"2X5X2X5X2X2X2X2X5X5X2X2X2X2X2X1X5X5X5X5X5X5X5X5X5X5X5X5X5X5X2X,X5X5X3X3X2X5X5X3X3X4X5X2X2X6X<X2X0X0X0X0X0X0X0X0X9X0X0X0X0X0X6X3X",
"2X2X2X2X2X5X2X2X1X5X5X5X2X5X2X2X5X5X5X5X5X5X2X5X5X5X5X5X5X5X<X,X3X3X3X3X5X5X3X5X3X4X2X4X2X6X<X2X0X0X0X0X0X0X0X0X0X0X0X0X0X0X6X3X",
"5X5X5X5X2X5X5X5X5X2X2X2X5X2X2X2X3X7X7X8X6X8X6X5X6X5X6X6X5X5X5X2X3X2X3X3X3X2X2X2X<X3X3X2X2X2X>X4X0X0X0X8X8X8X9X9X9X9X0X9X9X0X5X3X",
",X;X>X5X<X2X<X3X5X5X2X2X<X2X2X2X,X,X2X,X,X,X,X,X,X:X,X;X,X,X,X,X,X,X,X,X3X3X3X3X3X3X2X3X2X4X2X3X4X<X<X,X<X<X<X<X<X2X2X<X<X<X2X<X",
"2X2X<X6XqX0XqX0X0XqX0X0X0X0X0XqXqXqX8X,X2X,X2X2X<X<X2X2X<X<X2X<X<X2X,X7XqXqX0X0XqX0X0XqXqX0X0XqX0XwX4X6X0X0X9X0X0X9X0X9X9X0X0X9X",
"2X4X2X6XqX0X0X0X0X0X0X0X0X0X0X0X0XqX9X,X2X2X2X2X2X2X2X2X2X2X<X2X2X,X,X5X0X9X0X0X0X0X0X0X0X0X0X0X0X0X3X6X9X9X9X9X9X9X9X9X9X9X9X9X",
"3X3X<X6X0X0X0X0X0X0X0X0X0X0X0X0X0X0X0X,X2X2X<X2X2X,X2X<X2X,X<X<X<X2X,X7XqX0X0X0X9X0X9X0X0X0X0X0X0X0X4X6X0X9X9X9X9X9X9X9X9X9X9X9X",
"5X6X2X3XwXqX0X0XqX0XqX0XqXqXqXqXqXqX9X,X2X2X4X3X,X,X,X:X,X,XoXXXXXXX|.+X,X0XqXqXwXwXwXqXqX0X0XwXqXwX6X6X9X9X0X0X9X0X0X9X0X0X0X0X",
"<X<X<X<X3X<X<X<X2X2X<X4X3X2X3X2X2X<X;X;X<X-X@X{.: < 2 2 2 <   $ a ! g e > }.-X3X4X3X3X4X<X2X<X<X<X<X<X1X<X<X<X2X2X<X<X2X2X<X<X<X",
"0X0X0X0X0X0X0X0X0X0X9X4X9X8X8X8X8X6X6X3X%X5 * = h -.1.<.1.>.r t g O. .&.| u , |.&X,X<X<X9X9X9X9X0X8X0X9X9X9X9X8X9X9X4X<X0X9X9X9X",
"0X0X0X0X0X0X0X0X0X0X0X4X8X9X0X9X9X9X2X|.- p >.z.c.b.m.m.N.m.m.M.) x l ;.d.a. .F m +X>X3X9X0X9X0X0X0X0X0X9X0X0X0X0X0X6X2XwX0X0XqX",
"0X0X0X0X0X0X0X0X0X0X9X2X8X8X8X8X9X1X}.n 2.v.m.b.m.b.6.;.-.4.j.m.N.E.T.D.U +.d.t.{ T J.;X9X9X0X9X9X9X9X9X9X9X9X9X9X0X6X2X0X9X0X0X",
"0XqXqXqXwX0XwX0XqX0X0X4X9X0X9X9X2XI.~ j.b.b.b.z.-.H $ @ 6 # a X.5.N.!.'.H.T / z.f.$.J K.3X9X0X0X0X0X0X0X0X0X0X0X0X0X0X4XwXqXqXqX",
"0X0X0X0X0X0X0X9X0X0X0X8X4X6X9X2XI.) v.b.b.z.,.a e u S _ $.Z A U U P 8.B.^.`.F./ v.b.t.L K.<X8X9X9X0X9X0X9X0X9X9X9X6X3X4X8X8X8X8X",
"6X6X6X6X4X8X6X8X6X6X6X8X4X8X1XP.^ v.b.m.j.F w g | r.q.q.q.e.y.u.>.E j <.m.!.`.D./ v.b.p.L K.;X4X4X6X4X6X4X,X,X,X,X,X1X,X,X1X1X,X",
"0X0X0XqX0X8X0X0XqX0XqX0X0X0X}.~ v.b.l.1.F u | r.q.e.e.y.e.e.e.e.y.d.:.W =.9.Q.].D./ v.x.t.L P.0X0X0XwX0X0X<X2X4X2X2X5X2X4X2X4X2X",
"0X0X0X0X0X8X0X0X0X0X0X9XqX&XC.&.b.b.3.@ a $.e.q.q._ s d s s A %.q.q.g.4.U W j.Q.].D./ z.b.$.Y %X0X0X0X9X9X,X3X3X2X2X3X3X3X2X2X2X",
"0X0X0X0X0X8X0X0X0X0X0XqX,XK.2.b.b.j.a u O.%.q.q.q.7 O V C F # #.q.q.q.y.u.E H z.!.(.l 3.b.x.| C.,X0X0X0X0X,X2X2X2X4X5X3X3X2X5X5X",
"0X9X9X0X8X8X6X0X9XqX9X0XXXQ v.b.j.N S *.q.q.q.q.0.8 d %.k.M.r } e.q.q.0.y.6.E +.N./.D.^ v.b.i.J }.qX0X0X0X<X3X3X4X5X5X3X3X3X3X2X",
"<X7X<X4X<X8X<X4X4X4X7X-XZ.<.m.j.N g $.q.q.q.q.q.0.s d *.N.R.r } e.q.e.e.0.y.4.U ,.W.`.( X.b.b. .T -X6X4X6X6X<X1X<X<X<X,X<X<X<X1X",
"0XqX0X0XwXwX7X8X0X0X0XoXY b.m.-.w  .e.q.q.q.q.q.0.8 d *.B.R.r } q.q.q.q.q.q.a.^ H c.^.H.R z.b.f.~ {.0X0X0X0X2X5X6X5X6X6X6X5X6X6X",
"0X0X0X0X0X0X4X8X0X0X1XK.>.m.k.p D r.q.q.q.q.q.q.0.8 d *.B.R.r } e.q.q.q.q.q.y.h.j >.V.(.x 5.x.m.o.Z.2XqX0X0X2X3X6X5X5X5X5X5X5X5X",
"0X0X0X0X0X0X4X6X0X0X-XC.8.N./ r  .e.q.q.q.q.q.q.0.8 d *.B.R.r } e.q.q.q.q.q.0.a.^ G c./.D.! x.b.h.T &XqX0X0X<X3X5X5X5X5X6X5X5X5X",
"0X0X0X0X0X0X4X6X0XwX@Xj m.7.p D t.q.q.q.q.q.q.e.0.8 d i.B.R.r } e.q.q.q.q.q.q.e.u.U +.Q.T.h k.l.m.E {.eX0X0X<X6X9X6X6X6X6X6X6X6X",
"4X4X<X4X<X3X<X,X<X<XI.E m.8.w Z e.q.q.q.q.q.q.q.0.s d *.B.M.r } e.q.q.q.q.q.q.q.t.p ;.N.U.h z.b.m.^ J.<X<X<X<X6X5X6X6X5X5X5X6X6X",
"0X9X0X0X9X0X0X0XqX>X1 h.m.>.8 #.e.q.q.q.q.q.q.q.0.s d *.B.R.r } q.q.q.q.q.q.q.q.q.A K v.9.k 1.b.v.@.Z.*X0X8X9X6X6X6X6X9X5X2X0X9X",
"0X0X0X0X0X0X0X0XwX:X, j.m.H V e.q.q.q.q.q.q.q.e.%.8 d *.B.R.r } e.q.q.q.q.q.q.q.e.[ r h.B.Q H 8.6.3.C.$X0X8X9X9X0X9X9X0X4X4X0X0X",
"0X0X0X0X0X0X0X0XqX;Xv j.m.K V e.q.q.q.q.q.q.q.q.0.s d *.B.R.r } e.q.q.q.q.q.q.q.e.[ r h.v.N r I P I ; %X0X8X9X9X6X0X9X6X4X5X0X0X",
"qXqX0XwXwXwXwX0XeX>Xv k.m.H V e.q.q.q.q.q.q.q.q.0.s d *.B.R.r } q.q.q.q.q.q.q.q.e.[ y j.N.g q ' P H v $X0X8X9X9X9X0X9X0X6X6XwXqX",
"4X4X6X6X6X6X6X4X6X=X, &.m.! H y.q.q.q.q.q.q.q.q.%.s d *.B.R.r } e.q.q.q.q.q.q.q.e.[ r h.b.g g ` F F - #X8X4X4X4X4X4X4X6X8X2X2X2X",
"4X4X4X4X4X4X4X4X6X&X; &.m.! W y.q.q.q.q.q.q.q.q.0.8 d *.B.R.r } e.q.q.q.q.q.q.q.e.[ r j.v.w X 0 + X % $X9X6X6X9X6X6X6X6X4X,X1X,X",
"0X0X0X0X0X0X0X9XwX:X; *.b.P Q x.q.q.q.q.q.q.q.q.q.s d *.B.R.r } e.q.q.q.q.q.q.q.q._ u j.8.0 . @ 0 F v &XqX0X0X0X0X0X0XwX8X,X5X4X",
"9X9X9X9X9X9X9X8X9X1XZ.` n.4.T 4.a.q.q.q.q.q.q.e.%.8 d *.B.R.r } e.q.q.q.q.q.q.q.q.8 ' m.' 0 X.=.5.=.K.,X0X9XqX0X9X0X0X0X8X<X2X3X",
"0X0X9X9X9X0X9X0X9X0X@X9 n.@.T Y.N.%.q.q.q.q.q.q.0.s d i.B.R.r } e.q.q.q.q.q.q.q.0.7 ;.m.I @ =.,.1.t {.eX0X0X0XqX0XqX0XqX9X<X3X3X",
"4X4X9X9X9X8X8X6X8X9X+Xp d.z.W G.^.a.q.q.q.q.q.q.0.s d *.B.R.r } q.q.q.q.q.q.q.e.{ 9 6.b.G q ,.<.1.l |.9X8X9X8X0X9X9X9X9X6X2X2X2X",
">X>X>X<X<X2X2X2X<X<X&Xb ..m.+.T ).m.q.q.q.q.q.q.%.s B u.B.R.r } e.q.q.q.q.q.q.0.B P b.1.w -.7.l.5.n &X2X2X3X5X2X3X3X3X3X2X3X4X4X",
"4X6X2X6X9X8X8X9X8X8X5XP.L x.b.W G.~.a.q.q.q.q.q.0.8 d *.B.R.r } e.q.q.q.q.q.e.[ u 6.m.K w 7.7.l.=.M 2X8X0X0X0X0X0X0X0X0X0X9X0X9X",
"2X2X<X4X9X8X8X6X8X6X8X#Xl &.m.+.c ).W.p.q.q.q.q.q.s d *.B.M.r } e.q.q.q.q.e.0.B I b.z.i w =.,.=.x OX4X8X8X8X8X0X9X9X9X9X9X9X9X9X",
"2X2X1X4X6X6X6X6X8X6X4X5XK.J x.z.-.S.`.N.q.q.q.q.%.s d p.V.E.y } e.q.q.q.0.0.Z J 7.b.! y =.,.,.g M 6X5X8X0X8X0X8X9X9X9X9X9X9X9X9X",
"8X6X<X8X0X9X0X0X9X9X8X0X#XT i.b.b.W F./.m.t.q.q.q.7 f 9.R.U.e } e.q.q.e.e._ u 8.b.3.0 =.7.5.7.l |.0X5X8X0X0X0X0X0X0X0X0X0X0X0X0X",
"4X6X4X4X<X<X<X3X3X3X3X3X<XP.P s.b.6.Q F.].W.t.%.0.V # p p t 6 %.q.q.q.0._ 7 X.b.k.G w X.,.1.! 4 oX&X<X<X3X3X3X<X2X2X2X2X2X<X3X3X",
"<X8X8X6X9X8X8X9X6X6X6X6X6X>XZ.| n.b.6.E D.`.!.x.e.#.{ { { { #.0.q.e.0.Z u ;.m.k.K i X.+.5.` -  X#X;X6X6X6X6X6X6X6X6X6X6X6X6X6X4X",
"<X8X8X9X8X8X9X9X9X9X8X8X9X9X%XT @.v.b.k.-.T H.'.Q.n.y.e.0.e.e.0.0.{ 7 J 8.b.l.K i X.3.1.<.x L.oX-X9X6X9X8X8X9X8X9X9X9X9X8X9X9X4X",
"2X0X8X6X6X9X6X8X6X6X9X8X6X6X6X+XT &.x.b.v.>.R T Y._.E.x.y.0.w.] B 9 I j.m.l.K i 1.5.3.X.z M $X;X,X9X9X6X6X6X6X8X6X6X6X6X6X6X9X4X",
"3X0X9X0X9X9X0X9X9X9X0X9X0X9X9X4X+X( ..a.b.b.z.;.U T z ~ 4.B # B P h.b.x.1.G u ,.5.3.1.x M $X*X6X<X0X9X9X9X9X9X9X9X9X9X9X9X9X9X6X",
"2X,X2X,X2X0X9X8X6X6X6X8X6X6X6X4X5X+XT L s.b.b.b.j.1.F e t $ $ 4.m.m.8.H $ y ,.5.X.H z M oX$X2X5X<X4X4X3X4X9X9X8X9X8X8X8X8X6X6X4X",
"9X9X9X8X6X2X6X6X6X4X4X6X6X6X6X6X4X4X&X2 N  .x.n.m.m.m.v.z.n.n.z.,.H i y P 1.<.' k < [.#X1X6X8X8X9X9X9X9X3X3X9X8X8X6X8X6X8X8X8X8X",
"0X0X0XwX8X4X0X0X0X9X0X0X9X9X9X9X0X9X9X=X4 & y _ | i.f.f.v.3.:.W i p G +.&.I h - 4 oX&X,X0X0X0X0X0X0X0XqX3X6X0X0X0X0X0X0X0X0X0X0X",
"0X0X0X0X8X<XqX9X9X9X8X9X9X9X9X9X9X9X9X9X4XoXM > & U E N $ # o o B ` o.^ U - 3 .X%X;X8XqX0X0X0X0X0X0X0X0X<X6X0X0X0X9X0X0X9X0X9X0X",
"qX0X0XwX8X<X0X0X9X0X0X0X9X0X0X9X0X9X9X9X3X9XeX<X.X.X X[.: 1 Z.Z.A.A.Z.J.5 .X*X<X9XqX0XqX0XqX0X0X0X0X0XqX3X8XwX0X0X0X0X0X0X0X0X0X",
"0X0X0X0X8X8X0X8X8X8X7X8X8X8X4X9X9X9X8X6X4X9X9X0X0XqXwX0X6X<X>X<X1X<X>X<X1X1X6X0X9X9XqX0X0X0X0X0X0X0X0X9X2X<X6X6X9X8X9X9X0X0X8X8X",
"6X6X6X6X8X8X4X6X4X7X4X4X<X<X<X<X,X2X2X2X<X<X<X<X<X<X<X<X<X3X6X4X5X6X6X4X6X6X<X6X6X6X<X9X<X;X<X<X<X<X<X<X2X2X<X<X,X<X<X<X<X4X4X4X",
"0X0X0XwX0X0X0X0X0X0X0XwX9X<X9X6X6X6X6X6X6X4X6X6X6X6X6X5X<X4XwX0X0X0X0X0X0X0X0XqX0XqX0XwX<X<X0X6X6X6X6X6X6X6X6X6X6X6X6X8X<X8X0XqX",
"0X0X0X0X0X0X0X0X0X0X0X0X9X<X6X4X5X5X5X6X4X4X4X4X4X4X6X6X2X6X0X0X0X0X0X0X0X0X0X0X0X0X0X0X8X<X9X6X6X6X6X6X4X4X6X6X6X6X4X6X<X7X0X0X",
"qX0X0X0X0XqX0X0X0X0X0XqX9X2X6X6X8X6X5X6X6X4X6X4X6X6X6X6X3X6X0X0X0X0X0X0X0X0X0X0X0X0X0X0X8X<X0X<X6X6X6X6X6X4X6X6X6X6X4X6X<X8X0X0X",
"9X0X0X9X0X9X0X0X0X0X9X0X8X2X4X3X2X6X2X4X4X6X4X7X4X<X4X4X3X9X0X0X0X0XwX0XqX0X0XqX0X0X0X0X9X<X8X9X8X6X6X6X8X8X6X6X6X6X8X9X4X0XqXqX",
"7X<X7X<X<X4X4X4X4X4X<X4X4X4X4X<X<X7X4X4X4X4X4X4X4X<X<X4X4X8X4X6X4X6X4X6X4X6X6X6X<X9X<X9X<X0X<X9X6X6X6X6X4X4X4X4X6X6X4X8X4X4X6X4X",
"0X0XqX0XwXqX0X0X0XwX9X4XqXqXqXwX0XqXqX0X0X0X0XqXqXqX0X8XqX0X0X0X0X0X0X0X0X0X0X0X0XqX0X<XqXqX0X0X0X0X0X0X0X0X0X0X0X0X4X6X0X9X9X0X",
"0X0X0X0X0X0X0X0X0X0X9X4XqX0XqX0X0X0X0X0X0X0X0X0X0XqX8X6X0X0X0X0X0X0X0X0X0X0X0X0X0X0X9X8X0X0X0X0X0X0X0X0X0X0X0X0X0X0X6X9X0X0X0X9X",
"0X0X0X0X0X0X0X0X0X0X9X4X0X0X0X0X0X0X0X0X0X0X0X0X0X0X8X6XqX0X0XqX0X0X0X0X0X0X0X0X0XqX9X<XqX0X0X9X0X0X0X0X0X0X0X0X0X0X8X9X9X9X9X9X",
"qXqXqXqXqX0XqXqXqXqX0X4XqXqX0X0XqX0X0XqXqXeXqXwX0XqX8X0XeXqXqXqXqXqXqXqX0X0X0XqXeXeX9X8XeXeXqXeX0XeXqXqX0XwXwXwXwXeX9X9X0XqX0XqX",
"4X7X4X6X4X9X3X3X3X7X<X7X4X4X7X<X7X<X4X4X<X<X<X<X4X<X<X4X<X<X<X7X4X4X4X<X4X4X<X<X<X<X<X<X<X<X<X<X<X<X<X<X4X4X<X<X<X<X<X<X,X,X,X<X",
"6X6X6X6X6X4X9X9X0X9X0X9X8X0X0X0X0X0X0X0XqX<X0X9X9X0X0X0X9X8X8X9X0X8X9X9X9X<X9X9X<X0X9X8XqX9X<X0X0X<X0X0X4X>X2X2X<X3X2X2X2X2X<X4X",
"9X9X9X9X9X6X9XqX0X0X0X0XqXqX0X0X0X0X0X0X0X7X0X0X0X0X0X0X0XqXqX0X0XqXqX0X0X4X9X0X0X9X9X9X0X0X0X0X0X9X0X0X6X>X6X6X6X6X5X6X6X4X6X4X"
};
