/* XPM */
static char *result[] = {
/* columns rows colors chars-per-pixel */
"64 64 176 2 ",
"   c #020102",
".  c #0C0605",
"X  c #0C0907",
"o  c #020A0E",
"O  c #0D0A0A",
"+  c #1C0B07",
"@  c #140D0C",
"#  c #190D0B",
"$  c #17100E",
"%  c #1B110F",
"&  c #020E13",
"*  c #0B1214",
"=  c #031118",
"-  c #131314",
";  c #1C1412",
":  c #131618",
">  c #1A1618",
",  c #171919",
"<  c #1E1E1E",
"1  c #210B05",
"2  c #2C0B00",
"3  c #240E09",
"4  c #3B0F01",
"5  c #24120D",
"6  c #2A110B",
"7  c #3F1305",
"8  c #33130A",
"9  c #3C1509",
"0  c #221613",
"q  c #2D1510",
"w  c #251916",
"e  c #291A17",
"r  c #231A19",
"t  c #2B1D19",
"y  c #361911",
"u  c #321F1C",
"i  c #2F201C",
"p  c #33231E",
"a  c #39231F",
"s  c #001722",
"d  c #0E1D23",
"f  c #1F2020",
"g  c #17252B",
"h  c #18272E",
"j  c #1D2C33",
"k  c #222222",
"l  c #2A2726",
"z  c #2D2927",
"x  c #262929",
"c  c #2B2B2B",
"v  c #362520",
"b  c #3D2722",
"n  c #312927",
"m  c #3D2A24",
"M  c #312B2A",
"N  c #222F35",
"B  c #2E2F31",
"V  c #243037",
"C  c #2D3537",
"Z  c #2C363A",
"A  c #2C393E",
"S  c #343333",
"D  c #3B3837",
"F  c #33373A",
"G  c #33393C",
"H  c #3C3D3E",
"J  c #451202",
"K  c #4C1504",
"L  c #471709",
"P  c #46180A",
"I  c #531704",
"U  c #531906",
"Y  c #5D1A06",
"T  c #561B08",
"R  c #5C1D09",
"E  c #401B11",
"W  c #631B06",
"Q  c #6B1E06",
"!  c #611E0A",
"~  c #701F07",
"^  c #5D200D",
"/  c #65210C",
"(  c #6A210A",
")  c #732006",
"_  c #7C2206",
"`  c #74230B",
"'  c #7A260C",
"]  c #7D280E",
"[  c #7E2C13",
"{  c #412723",
"}  c #422B26",
"|  c #4B2D24",
" . c #442E29",
".. c #482E29",
"X. c #46312A",
"o. c #4C342D",
"O. c #51362E",
"+. c #51382F",
"@. c #523730",
"#. c #543A32",
"$. c #5B3E36",
"%. c #5A3F38",
"&. c #5D4037",
"*. c #5E4138",
"=. c #63443B",
"-. c #68473D",
";. c #66483E",
":. c #69493E",
">. c #2D3C43",
",. c #323D43",
"<. c #3B3F41",
"1. c #3E4043",
"2. c #34454C",
"3. c #3D454A",
"4. c #37484F",
"5. c #394850",
"6. c #424141",
"7. c #4D4D4C",
"8. c #535353",
"9. c #5C5D5E",
"0. c #6D4C41",
"q. c #714F43",
"w. c #755246",
"e. c #785447",
"r. c #775348",
"t. c #7A5649",
"y. c #7E594B",
"u. c #636464",
"i. c #6A6C6C",
"p. c #842406",
"a. c #8E2606",
"s. c #822509",
"d. c #892709",
"f. c #81290E",
"g. c #8E2A0B",
"h. c #932705",
"j. c #962907",
"k. c #942D0C",
"l. c #9B2D0B",
"z. c #9C300F",
"x. c #953011",
"c. c #9C3210",
"v. c #A32E0A",
"b. c #AA2F0A",
"n. c #A4320E",
"m. c #AB320C",
"M. c #B3330C",
"N. c #BC350C",
"B. c #BF390F",
"V. c #A63410",
"C. c #A83410",
"Z. c #B63710",
"A. c #B43812",
"S. c #BB3A12",
"D. c #C2370C",
"F. c #C5390D",
"G. c #CB3A0D",
"H. c #D43C0E",
"J. c #D93E0F",
"K. c #C53C11",
"L. c #CC3E12",
"P. c #D23E12",
"I. c #CE4014",
"U. c #D44114",
"Y. c #DB4315",
"T. c #E34616",
"R. c #E64816",
"E. c #E94817",
"W. c #E34718",
"Q. c #E64818",
"!. c #EC4A18",
"~. c #F34C19",
"^. c #F84D19",
"/. c #815B4D",
"(. c #865E50",
"). c #8A6152",
/* pixels */
"p =.q.0.0.0.0.w.t 0.t.t.t.t.t.w.y.:.i =.&.&.&.&.$.=.X.t -.=.#.p  .=.*.&.=.m p =.&.&.&.&.$.=.m X.).o.o.y.e.t.:.i &.&.&.&.&.&.&.&.",
" .m q.0.0.0.0.:.p 0.t.t.t.t.t.t.t.i w =.&.&.&.&.&.&.p X.@.p w } i w o.*.;. .p =.$.$.&.&.$.-.a o./.*.e.t.t.t.w.i &.&.&.&.&.&.&.&.",
"0.o.;.0.0.:.e.X.+.).w.t.t.t.t.w. .X.t =.&.$.&.&.&.=.$ t e } -.:.0.@.w e X.=.t o.&.&.&.&.$.=.X.m t.y.e.t./.y.:.t &.&.&.&.&.&.&.&.",
"w.e.w.w.w.w.0.p v ;.w.y.e.t.t.w.w.q.i :.=.=.=.=.+.v b &.r.y.e.=.:./.t.o.i p w #.=.&.=.*.=.$.=.e :.t.t.0.*.:.e.i ;.&.&.&.&.&.&.&.",
"p p v p p m $ t p i i &.r.q.w.t.=.p @ i t i i i i 0 #./.&.:.=.#.$.q.$.e.w.; @ m $.$.#.#.#.$.;.i w.y.&.X ; $ p $ p $.$.$.&.&.&.+.",
"X.X.X.X.X.X.o.=.;.;.; v i i i ; m $.*. .@ u . $ =.:.0 t { v 0 + 3 k b b t m ;. .- ; p e t $ m ; +.v m ; m p t a @ ; % ; 0 $ % ; ",
"=.=.=.=.=.=.=.$.&.&.i ;.q.:.p &.q.q.w.$.0 w @.e.:.:.q.p O L j.Y a.W q @ u e.e.w.=.i #.0.w.+.m m m *.w.w a } } } { b b { a ; a m ",
"*.*.$.$.$.%.$.&.&.&.i ;.q.:.;.q.0.:.q.w @ #./.w.=.=.X.q U N.H.I b.H.b.! q m  .o.e.0.t i 0.w.t.e.r.0.:.p p { a { { b m { e 5  .m ",
"$.&.=.&.&.&.&.&.&.&.w :.0.0.w.:.0.0.0.; o./.r.o.b e 1 l.H.N.F.I v.F.D.H.W # t a =./.0...t 0.@.i 0.q.q.%.; } b b b b b } t 0 } { ",
"i p $.&.&.&.&.&.&.&.t ;.0.0.0.0.q.0.u @.y.w.o.b 0 ~ I N.N.N.F.I v.F.N.G.T j.~ t ..:.$.=.#.p X.=.0.0.q.#.; } b { b { { b b b { b ",
"O.i #.*.&.&.&.&.&.&.w :.0.0.0.0.0.w @./.y.$.b w ) G.K M.D.N.G.I v.F.N.G.Y j.H.Q w } q.w.y.; @.r.0.0.q.#.5 } b b b b { { b b b { ",
"=.$.&.&.&.&.&.&.&.&.w ;.0.0.0.0.v 0 e #.:.#.0 ~ G.D.K M.L.D.F.I v.D.N.G.R h.G.G.~ e #.-.i 0 e %.0.0.w.#.; } b b { m b b { { b b ",
"$.=.&.&.&.&.&.$.$.&.w ;.0.0.w.#.w 0...0 w e ~ G.N.D.K M.Y.U.L.U M.F.N.G.Y j.G.N.H.W ; 0 v =.0.; -.0.q.%.0 { b b b b b { b b b { ",
"=.m $.&.=.=.=.=.=.=.t w.t.w.*.r 0./.0.o.# 2 G.N.D.N.K K.Y.U.Y.I Z.F.N.G.Y k.F.N.H.~   } w.y.e.b } 0.0.w.v t ..b ..} b { m { b b ",
"w p p =.b m m  .m m $ X.o.+.p  ./.-...r K T N.D.D.F.I L.Y.P.T.R M.G.K.H.! k.G.D.G.~ W E v =./.r.w @.w.r.b t ..} e t { { ..{ } } ",
"X.0.m t X.@ 0 0 0 w w ; w . p t.y...v y j.U N.N.N.K.T I.P.L.W.R Z.P.K.J.( j.G.K.G.Q h.~ r o.q./.#.e =.=.e 0 u ; } b t p u u u u ",
"/.y.w.0.(.w m  .{ ..{ ..b 0 *./.-.{ ; d.F.K D.D.N.I.T I.U.L.W.R S.W.U.E.Q n.Y.U.Y.Q p.D.6  .=.+.r.w ; b p i p ;.y.t.< i i i i t ",
"t.e.t.y.:.w m a b { b } e e t.t.=.u P D.M.K F.P.K.U.T I.Y.Y.T.R S.Y.U.Q./ m.R.U.R.( p.J.Q w :.;./.o.i /.y.y.y.y.t.t.i :.:.e.e.:.",
"t.t.w.y.m t } { v u b } 0  .q.o.=.0 s.G.M.K L.Y.Y.Y.T L.Y.U.T.R S.Y.U.Q.Q V.T.L.T._ p.Y.b.8 o./.t.=.@ &.t.e.t.t.t.t.p ;.w.:.:.:.",
"e.t.w.(.m t { m { 0 ; 0 @ 0.#.$. .9 N.F.N.K P.Y.U.Y.T I.Y.U.T.R S.P.U.Q.( C.T.K.R.' k.J.G.I n y.;.0.i #.y.e.t.t.t.t.i ;.:.:.w.:.",
"t.t.e./.m t { { { { a e # =.y.t.> d.L.K.K.T Y.Y.Y.Y.T I.L.L.Q.R S.U.L.E.! C.P.P.E.' k.T.F.d.5 ;.=.=.i #.y.e.t.t.t.e.i ;.w.0.0.0.",
"e.t.w./.a t } m { b { b ; =.t.t.r g.J.P.L.T Y.U.Y.Y.T U.Y.L.W.R S.Y.K.Q./ V.Y.L.R.' k.T.I.M.3 ;.w.w.t &.y.e.t.:.e.+. .w.:.:.0.0.",
"t.w.e./.b t } { { b b b @ 0 0 e O z.Y.U.L.T Y.U.Y.Y.7 ^ N.E.~.! I.!.U.!.` A.~.W.^.f.c.~.R.G.+ ; ; 0 @ &.y.t.t.;.m ; +.w.0.0.0.0.",
"w.t.:.$.0 { b b b b b b @ $.$.O.; k.Q.Y.I.T U.L.T.W * 2...a.k.4 ' j.a.j.J ( j.d.l.K Y j.k.p.+ X.+.+.0 $.y.w.e.t.e.v o.w.:.0.:.0.",
"/.).#.v e } b { } } } { ; =.-.y.r k.W.U.L.T U.K./ & V Z ,.G G G G G G G G G G G A H G A G C $ +.t.y.i *.).y.y.y.).&.X.y.:.e.e.w.",
"X.X.X.X O b { { e 0 0 0 @ =.-.$.; k.J.Y.L.T Y.V.; h G B Z 2.>.,.1.2.>.>.,.1.4.>.A H 3.2.>.A $ a &.y.p p &.X.X.X.X.< i  . .m m m ",
"p p p m ; ; u @ v  ...} # -./.$.; k.P.Y.I.R L.Y.M.. j >.N 0 0 @ ; 5 5 5 @ % 0 5 3 $ % 3 5 + $ } =.y.m i m v m m a  .m  .i i &.&.",
"@.#.@.@.#.v # m =.=.=.=.5 =./.#.; x.Y.Y.L.T Y.U.Q.C.# g ( G.H.T m.H.D.P.W l.H.F.U.) d.U.I.N.3  .:.(.X.X.:.*.=.*.;.=.=.:.m  .(.t.",
"o.o.o...#.v b -.$.$.$.$.0 =./.@.- k.Q.U.L.T U.Y.J.W.U h.U.Y.J.R S.W.Y.!.( C.Q.L.R.' k.E.Y.U.5 &.y.t.m X.*.&.&.&.&.&.&.&.a o.y.t.",
"O.o.@.o.@.v v =.$.$.$.$.0 =./.$.; l.Q.P.S.T Y.Y.Y.Y.T U.Y.U.P.R S.Y.U.Y.Q V.T.L.T.' k.R.Y.I.3 ;.:.&.m m *.&.&.&.&.&.&.&.i t.t.t.",
"o.O.o.o.#.p v =.$.*.=.$.e w.q.e.> k.Q.P.D.R Y.U.U.Y.T L.Y.U.P.R S.Y.U.J.Q C.T.L.Y.' g.T.I.I.6 ;.:.:.X.X.&.&.&.&.&.&.&.&.i w.t.w.",
"O.o.o.o.@.v u =.$.%.$.$.p $...y.r k.Q.Y.K.T U.U.K.Y.T L.Y.U.P.R S.W.L.R./ C.R.L.R.' k.T.I.I.6 *.y.(.m m &.&.&.&.&.&.&.&.i w.t.t.",
"o.@.@.o.+.a $ X.=.&.=.+.p =.=.=.; l.Q.U.U.R Y.Y.L.U.T I.Y.U.P.R S.Y.U.R.( n.W.Y.!.' k.W.L.U.6 ;./.). .m =.$.$.=.$.$.*.$.e t.t.t.",
"o.o.o.o.#.p i i #.&.&.&.0 o.o.} - k.T.T.[ > x.W.Y.Y.T L.T.P.P.R S.W.U.W.( m.Y.U.W.' k.W.U.U.3  .$.o.t X.;.$.*.%.=.$.=.b o.y.w.t.",
"@.o.O.o.@.p m o.X.=.&.&.# 0 i w O x.!.' o d O g.W.U.T L.Y.U.T.R S.T.U.!.( m.W.U.!.' k.R.U.U.+ ; 0 0 @ m o.%.$.&.$.&.:.p *.y.w.w.",
"o.@.o.O.#.p p ;.=.&.&.&.e e.y.e.r n.c.= U / L = C.Q.T L.Y.U.T.R S.Y.U.W.( n.W.U.Q.' k.!.Y.U.6 =.w.y. .0 m 0.=.=.=.#.X.0 ;.)././.",
"..o. ...o.i i =.+.+.$.+.i e.t.:.> n.f.s ( ~ / s g.E.U L.Y.U.T.R B.G.U.W.( V.W.U.Q.' k.W.U.U.5 =././. .  p i t i i p m v v m v m ",
"e w t w t w w ; w i i t 0 t.e.o.- n.l.d x ; D B l.R.U I.Y.P.T.R S.U.U.!.( V.Y.U.Q.' k.Q.U.P.6 } :./.m 5 p i u # p :.w.e.&.#.+.&.",
"0.q.0.0.0.0.w.X.o./.e.e.i e.e.o.; k.~.f.: : f g.Y.Y.T I.L.Y.R.R S.T.U.W.( V.Y.G.E.' k.Q.Y.L.q v O./. .t } { | e o.e.:.0.w.w.w.0.",
"0.0.0.0.0.0.w.X.o./.e.w.p :.:.;.; k.R.Y.Z.J M.Y.U.Y.T L.K.U.T.R S.Y.Y.W.( C.W.D.E.' x.Q.U.U.6 b &.). .e { m } 0 X.w.:.:.:.:.=.n ",
"0.0.0.0.0.0.t. .o./.t.w.p #.=.y.r k.R.U.U.R Y.Y.K.U.T I.Y.U.T.R S.T.Y.W.( m.W.I.W.' k.W.U.I.6  .q.y. .w } a } 0 X.w.:.0.0.w.o.m ",
"0.0.0.0.0.q.0.m *.t.t.w.i t.y.t.r k.Q.Y.L.U Y.Y.K.Y.T L.Y.U.T.R S.Y.U.W.( C.W.U.!.' k.W.U.F.6 =.q.O.} w | b { w &.q.0.0.0.0.0.0.",
"0.0.0.0.0.q.*.i /.t.t.w.i e.t.&.; k.Q.U.I.T Y.Y.K.U.T I.Y.U.Q.R B.T.I.T.( n.W.U.E.' k.R.L.L.6 *.y.=.m e } { p e w.0.0.0.0.0.0.0.",
"0.0.0.0.0.0.*.v y.w.t.w.i t.t.&.> k.Q.Y.I.T Y.U.Y.Y.T K.Y.U.T.R B.Y.U.Y.( n.T.U.E.' k.W.F.U.6 =.y./. .e } { p t 0.:.0.0.0.0.0.0.",
"w.:.:.0.w.t.*.v y.w.t.t.p q.t.e.r k.R.U.I.T Y.Y.Y.U.R Y.Y.U.Y.Y A.Y.U.T.( n.W.I.R.' k.T.U.I.6 *.w./.X.w } { a w 0.:.0.0.0.0.:.0.",
"w.w.:.&.v m *.r y./.y.&.@ ; e t X c.J.L.I.L I.U.U.T.J ^ K.E.~.! I.!.T.^.( A.!.W.^.] z.^.W.Y.5 0 0 e % u  . .a t t.w.w.w.w.w.w.w.",
"X.X.$ t o. .r w  .#.$ ; 0 o.o.o.- l.Y.P.L.T L.L.!.Q * 2.| j.l.7 _ z.k.z.J ) l.g.n.I W z.j.g.3 p #.$.w % t w ; $ o.o.X.o.o.X.X.X.",
"0 t %  .;.=.&.=.X.p b v w y./.y.r k.W.U.L.T U.U.( & V Z ,.G F G F F C C G D F F Z G D Z G C $  .e.).X.e m v m v $ i m $ i X.m  .",
"} | 0  .=.$.&.$.=.=.=.=.t e.y.$.; k.E.Y.I.U Y.S.- h A B A 2.2.,.6.2.,.>.,.1.5.,.>.<.3.2.,.>.- } q./. .X.:.=.=.m X.=.:.p $.e.w.w.",
"b } 0  .=.&.&.&.&.$.$.$.t e.0.| > k.Q.U.I.T U.W.m.. j ,.V 0 # @ ; 0 ; % @ ; 0 % ; @ ; % 0 # @ ..w./. .m =.&.+.t =.&.=.i +.w.:.0.",
"{ } 0  .=.$.$.=.&.&.&.$.t y.;.{ > l.T.L.I.T Y.U.Q.m.@ g / F.G.U m.G.B.H.Y j.G.B.G.Q s.H.F.N.3 =.y.:.m  .=.$.&.$.&.$.=.i @.w.:.0.",
"b } ;  .=.$.$.$.&.$.=.+.w y.-.{ ; k.T.K.K.T Y.U.L.R.U a.U.Y.Q.R S.W.Y.E.( C.Q.U.R.) c.E.Y.P.5 *.y.=.m  .=.$.&.&.&.&.=.p o.w.0.0.",
"b { ;  .=.$.&.&.&.*.@.w ; y.-.} > k.E.U.S.T U.Y.F.U.T Y.Y.I.T.R S.Y.L.Y.( V.W.U.Q.' k.Q.U.I.6 =.e./. .m ;.&.&.&.&.*.#.p ;.0.0.0.",
"{ } 0  .=.$.$.$.&.=.o.a t X.q.$.; k.Q.Y.I.T Y.Y.L.U.T K.Y.K.Y.R S.Y.F.!.( C.R.U.E.' k.R.U.U.6 $.y./.m  .=.&.&.&.$.=.X.v r.0.0.0.",
"b { 0  .=.$.$.$.&.&.=.$.t -.w.$.> k.W.Y.I.T Y.Y.U.U.U I.Y.I.Y.R S.Y.I.W.( C.Y.U.Q.' k.Y.K.P.6 m w./.m m =.&.&.&.$.=.X.p w.0.0.0.",
"b { 0 ..=.$.$.=.*.*.&.$.t /./.t.r c.!.Y.I.T Y.Y.Y.W.R U.W.Y.!./ I.W.Y.~.( n.Y.Y.!.] c.Q.Y.U.q  .e.).X. .&.&.&.&.$.*.X.p w.:.0.0.",
"{  .0 o.;.=.;.o.i @.=.=.% X.O.O.$ _ F.D.M.J N.B.N.N.J M.B.N.D.K l.D.M.G.U h.D.N.G.W p.G.N.M.+ v o.+.w  .:.=.=.=.=.0.o.m e.w.r.w.",
"0 w @ w b a p @ w   w m z c c l c c M M M l x x n z l z z n z h z z x x z z M z n z z n n n x x z c z n m p b v v v t ; X.m  .m ",
"- - < > * - - , f k : - B 7.9.9.9.9.9.9.9.i.i.i.i.i.i.i.i.i.i.i.i.i.i.i.i.u.u.i.u.u.i.u.i.u.9.9.9.9.7., - - , - * - - , - - , x ",
"S c k k k k k c S S l k < < i k < f f f k H 6.&.2.&.<.H 2.&.&.6.6.6.6.&.7.u.u.u.u.u.u.9.7.c < i x M < k x k k S S l k k k k x k ",
"c k i f x < f < < < f < f f f k c c i f f < < < , f < < < k k k < < < < k S 8.8.8.8.S c k < k c S x f f k k k k c k f < k k f f ",
"f f f f r k x < k k k c S x < x B B f f f f f f k f f f x S S S k k k k k f k k f f k k f < k k i f f f k k k k < k c S C r k k ",
"f f f x z S S k < k k k c k f k f f f k k f f x D c k f k < < < f f k k k k D S c < k k c c f k f k f k k c k k k k k c k k k k ",
"k x f c C k k k k k k k < f k f k k k k k k f f i B g i k k k k k k k k k k f k k k k S S c x k k k k f k c S c f k k f k k f k "
};
