/* XPM */
static char *result[] = {
/* columns rows colors chars-per-pixel */
"64 64 255 2 ",
"   c #BEBBB9",
".  c #C0BDBB",
"X  c #C1BFBC",
"o  c #C1BFBD",
"O  c #C2BFBD",
"+  c #C3BFBD",
"@  c #C1C0BD",
"#  c #C2C0BD",
"$  c #C2C0BE",
"%  c #C3C0BE",
"&  c #C3C1BE",
"*  c #C3C0BF",
"=  c #C3C1BF",
"-  c #C3C2BF",
";  c #C4C0BE",
":  c #C4C1BE",
">  c #C4C0BF",
",  c #C4C1BF",
"<  c #C5C1BF",
"1  c #C4C2BF",
"2  c #C5C2BF",
"3  c #C2C0C0",
"4  c #C3C1C0",
"5  c #C3C1C1",
"6  c #C3C2C0",
"7  c #C3C2C1",
"8  c #C4C2C0",
"9  c #C5C2C0",
"0  c #C4C3C0",
"q  c #C5C3C0",
"w  c #C4C2C1",
"e  c #C5C2C1",
"r  c #C4C3C1",
"t  c #C5C3C1",
"y  c #C6C2C0",
"u  c #C6C3C0",
"i  c #C6C2C1",
"p  c #C6C3C1",
"a  c #C4C2C2",
"s  c #C5C2C2",
"d  c #C5C3C2",
"f  c #C5C3C3",
"g  c #C6C3C2",
"h  c #C7C3C2",
"j  c #C6C3C3",
"k  c #C5C4C1",
"l  c #C6C4C1",
"z  c #C7C4C1",
"x  c #C5C4C2",
"c  c #C5C4C3",
"v  c #C6C4C2",
"b  c #C7C4C2",
"n  c #C6C5C2",
"m  c #C7C5C2",
"M  c #C6C4C3",
"N  c #C7C4C3",
"B  c #C6C5C3",
"V  c #C7C5C3",
"C  c #C7C6C3",
"Z  c #C6C4C4",
"A  c #C7C4C4",
"S  c #C6C5C4",
"D  c #C7C5C4",
"F  c #C7C5C5",
"G  c #C6C6C4",
"H  c #C7C6C4",
"J  c #C7C7C5",
"K  c #C7C5C6",
"L  c #C8C5C2",
"P  c #C8C4C3",
"I  c #C8C5C3",
"U  c #C9C5C3",
"Y  c #C8C6C3",
"T  c #C9C6C3",
"R  c #C9C7C3",
"E  c #C9C4C4",
"W  c #C9C5C4",
"Q  c #C8C6C4",
"!  c #C9C6C4",
"~  c #C8C7C4",
"^  c #C9C7C4",
"/  c #C8C6C5",
"(  c #C9C6C5",
")  c #C8C7C5",
"_  c #C9C7C5",
"`  c #CAC7C4",
"'  c #CAC6C5",
"]  c #CAC7C5",
"[  c #C8C6C6",
"{  c #C8C7C6",
"}  c #C9C7C6",
"|  c #C8C6C7",
" . c #C9C6C7",
".. c #C9C7C7",
"X. c #CAC7C6",
"o. c #CAC7C7",
"O. c #C8C8C5",
"+. c #C9C8C5",
"@. c #CAC8C5",
"#. c #CBC8C5",
"$. c #CAC9C5",
"%. c #C8C8C6",
"&. c #C9C8C6",
"*. c #C9C9C6",
"=. c #C9C8C7",
"-. c #C9C9C7",
";. c #CAC8C6",
":. c #CBC8C6",
">. c #CAC9C6",
",. c #CBC9C6",
"<. c #CBC8C7",
"1. c #CAC9C7",
"2. c #CBC9C7",
"3. c #CBCAC7",
"4. c #CCC8C6",
"5. c #CCC9C6",
"6. c #CCC9C7",
"7. c #CDC9C7",
"8. c #CDCAC6",
"9. c #CCCAC7",
"0. c #CDCAC7",
"q. c #CECAC7",
"w. c #C7C6C8",
"e. c #C8C6C8",
"r. c #C9C7C8",
"t. c #CAC7C8",
"y. c #CAC9C8",
"u. c #CBC9C8",
"i. c #CAC8C9",
"p. c #CACAC8",
"a. c #CBCAC8",
"s. c #CBCAC9",
"d. c #CBCBC9",
"f. c #CAC8CA",
"g. c #CBC9CA",
"h. c #CBC9CB",
"j. c #CCC9C8",
"k. c #CCCAC8",
"l. c #CDCAC8",
"z. c #CCCBC8",
"x. c #CDCBC8",
"c. c #CCCAC9",
"v. c #CDCAC9",
"b. c #CCCBC9",
"n. c #CDCBC9",
"m. c #CECBC8",
"M. c #CECBC9",
"N. c #CFCBC9",
"B. c #CCCACA",
"V. c #CCCBCA",
"C. c #CCCACB",
"Z. c #CCCBCB",
"A. c #CECBCA",
"S. c #CDCCC9",
"D. c #CECCC9",
"F. c #CFCCC9",
"G. c #CECDC9",
"H. c #CCCCCA",
"J. c #CDCCCA",
"K. c #CDCCCB",
"L. c #CDCDCB",
"P. c #CECCCA",
"I. c #CFCCCA",
"U. c #CECDCA",
"Y. c #CFCDCA",
"T. c #CECCCB",
"R. c #CECDCB",
"E. c #CFCDCB",
"W. c #CFCECB",
"Q. c #CCCACC",
"!. c #CECDCC",
"~. c #CFCDCC",
"^. c #CECECC",
"/. c #CFCECC",
"(. c #CFCECD",
"). c #CFCFCD",
"_. c #D0CCCA",
"`. c #D0CDCA",
"'. c #D0CDCB",
"]. c #D1CDCB",
"[. c #D0CECB",
"{. c #D1CECB",
"}. c #D0CECC",
"|. c #D1CECC",
" X c #D0CFCC",
".X c #D1CFCC",
"XX c #D0CECD",
"oX c #D0CFCD",
"OX c #D1CFCD",
"+X c #D2CFCC",
"@X c #D2CFCD",
"#X c #D0CFCE",
"$X c #D1CFCE",
"%X c #D1D0CD",
"&X c #D2D0CD",
"*X c #D3D0CD",
"=X c #D0D0CE",
"-X c #D1D0CE",
";X c #D1D1CE",
":X c #D1D0CF",
">X c #D1D1CF",
",X c #D2D0CE",
"<X c #D3D0CE",
"1X c #D2D1CE",
"2X c #D3D1CE",
"3X c #D2D0CF",
"4X c #D2D1CF",
"5X c #D3D1CF",
"6X c #D3D2CF",
"7X c #D4D1CF",
"8X c #D4D2CF",
"9X c #D2D1D0",
"0X c #D3D1D0",
"qX c #D2D2D0",
"wX c #D3D2D0",
"eX c #D3D3D0",
"rX c #D3D2D1",
"tX c #D3D3D1",
"yX c #D4D2D0",
"uX c #D5D2D0",
"iX c #D4D3D0",
"pX c #D5D3D0",
"aX c #D4D2D1",
"sX c #D4D3D1",
"dX c #D5D3D1",
"fX c #D4D3D2",
"gX c #D5D3D2",
"hX c #D5D4D1",
"jX c #D4D4D2",
"kX c #D5D4D2",
"lX c #D5D5D2",
"zX c #D5D4D3",
"xX c #D5D5D3",
"cX c #D6D4D2",
"vX c #D6D5D2",
"bX c #D6D4D3",
"nX c #D6D5D3",
"mX c #D7D5D3",
"MX c #D6D6D3",
"NX c #D7D6D3",
"BX c #D6D5D4",
"VX c #D7D5D4",
"CX c #D6D6D4",
"ZX c #D7D6D4",
"AX c #D7D7D4",
"SX c #D7D6D5",
"DX c #D7D7D5",
"FX c #D8D6D4",
"GX c #D8D6D5",
"HX c #D8D7D5",
"JX c #D8D7D6",
"KX c #D8D8D6",
"LX c #D9D8D6",
"PX c #D8D8D7",
"IX c #D9D9D7",
/* pixels */
"# # # # o o o # $ X k.2X|.'.'.[.|.|.|.@XY. X.XY.[.[.[.'.}.[.[.^ I.'.`.[.[.{.|.[.[.F.l.P.P.Y.E.E.E.E.Y.E.@.,.[.[.[.|.|.|.}.[.Y.( ",
"H H H H H H H H J 0 2.ZXnXnXnXnXnXnXnXZX4X1XZXZXnXnXCXZXCXBXDXD.sXDXBXnXnXnXBXCXZXsX[.HXZXZXZXZXZXZXZXJX XW.nXkXkXkXkXkXkXkXCX:.",
"B B B B B B B B B r P.JXZXZXZXSXHXHXHXHXnXnXDXHXHXHXSXZXZXDXLX.XkXKXDXSXZXDXZXZXZXkX}.HXZXZXZXZXZXZXZXKX/.}.ZXnXnXnXnXnXnXnXZX_ ",
"@.@.^ @.;.,.^ ! Y v D.5X}.Y.D.D.5.9.n.D.k.2.k.P.Y.n.l.D.l.n.D.9.P.n.n.P.D.D.&XE.P.x.#.D.`.|.OX.X,XOX.X&Xx.^ P.P.P.E.OXOXE.n.k.Q ",
"dXdXsXsXkX}.k.%XoX%XoX/./././. X1 &.>.1.1.1.1.1.1.>.) ;.R.J.J.J.J.J.J.J.R.V Y.kXyXyXsXwXwXwXyXwXn.wXyXwXyXwXwXwXwXwX4XP.kXyXwXsX",
"ZXZXZXZXDXOXR.sXqXqXwXwXwXwXqXsXV J.R.R.R.R.L.R.R.R.b.a.4X-X-X-X-X-X-X=X4X2.-XZXZXZXZXZXZXCXCXZXS.nXZXZXZXZXZXZXZXZXsXE.HXZXZXZX",
"kXsXsXnXZXOXv.5X4X,X,X,X,X1XyX5Xq k.J.J.K.R.!.R.T.J.] ,.#X#X#X#XoXXXoX-X:Xj.yXJXnXnXnXnXnXZXZXgXk.sXkXzXzXnXnXkXzXCXaXP.mXZXnXnX",
"V t - V 9.5.] @.:.#.#.:.#.` L I L ^ ^ ^ ] ] @.@.] E.m.m.m.`.E.I.F.M.Y.,.9 l Y I l u u l b b ` x.,.,.,.6.9.x.l.9.] D.[.Y.`.[.`.Y.",
"a.b.b._ oX-X>X:X-X:X-X-X-X}._ )./././././././.oXk.-XHXCXCXnXnXnXnXnXDX3.H -.) ) %.&.&.&.&.H @.sXwXwXwXqXqX4X4XsXP.4XZXnXnXnXnXnX",
"d.d.s.&.-X4X4X4X4X4X4XqXwX-X;.:X=X=X=X=XoXoXoX>Xn.9XLXHXHXHXHXHXHXHXLXb.) p.1.1.1.1.-.&.&.~ @.sXqXwXwXwXqXwXwXsX XdXLXSXZXSXHXZX",
"v.v.<.I ;.k.n.n.l.M.x.^ ! V u #.! ! ! ^ ,.9.@.@.l ,.J.P.P.P.T./.b.k.k.v # 8 0 8 8 1 Q @.] Y #.,XOXOXOX@X,X.X[.Y.` V E.OX,XOXP.OX",
"5X5X5XwX1X,X1X,X5X}.4 5 5 5 a 5 5 5 5 5 % g F Z Z A Z Z Z Z Z * r x x B B B B n H = ^ yX4X5X5X4X1X,X,X4Xx.6.U.S.n.k.k.n.P.S.x.L ",
"ZXCXMXnXCXZXZXZXHX6Xw w.| | | | | | | e.d ..h.g.f.f.f.g.g.g.g.g &.=.1.1.1.1.1.1.a.B *.HXnXnXnXnXnXnXnXZX}.E.wX4X4X4X4X4X4X4X9X! ",
"ZXZXGXHXHXSXSXZXJXhXD r.| K K K K K K K t / r.g.Z.Z.C.C.B.B.B.I &.a.&.) ) ) ) _ &.- ;.ZXfXrXaXaXsXfXsXzXY.n.-X4X4X:X3X4X:X-XoX! ",
"F.`.,.T T m L L Y R ! q ] D.9.x.S.D.x.k.,.@.,.#.L b p 9 9 y u p u ; ,.D.l.x.x.x.l.5.D.E.:.! ] ] :.2.,.,.:.] ^ :.x.;.:.2.;.^ Y ! ",
"wXR.8 H H H H H H H H H / nXnXnXCXnXBXBXZXZXZX! i h h h h h h h P + P.LXZXZXZXZXZXZXnXZXE.;XtXtXeXwXwXwXtXsX1XI -X-X-X-X-X-X>X4X",
"sX/.0 -.%.%.{ ) &.&.&.&.V kXDXZXZXZXZXZXZXZXHX6.P W W W E P W W ' > E.IXZXZXZXZXZXZXSXHX/.5XsXsXsXsXsXsXsXjX4XI wX4X4X4X4X-X>X>X",
",XE.V @.;.@._ ;.l t m ^ b |.&X[.[.}.2X&X&X.Xx.y : , < y I ! p 9 p O Y &X2X6X6X2X.X[.[.&XD.3.J.R.E.P.}.E.P.n.;.! Y.x.I.D.E.,X|.}.",
",X,X%X,X&X&X,XP.OX,X,X1X6X1X,X,X,X Xa.E.E.R.S.J.P.U.E./.+.3 f w w a 5 4 a s s , }.}.}.}. X}. XoX%XP.;.,XOXOX%X5X,X,X,X,XE.}.5X%X",
"ZXZXZXCXZXZXZXW.jXZXZXZXCXCXZXZXZXkXb.wXwXqXwXwXwXwXwXsXb.a i.r.r.r.r.r.r.e.e.v sXkXkXkXjXkXfXjXkXwXJ.HXZXZXZXnXCXZXZXHX4X-XHXZX",
"ZXZXZXHXZXZXnX-XSXGXZXZXZXZXZXZXZXnXn.-XwXrXsXsXsXrXwXwXn.f t. .| [ | [ | r.| / sXsXhXkXbXzXnXnXkXyXoXJXZXSXHXJXJXSXBXnX@X4XZXnX",
"D.U.U.9.}.E.x.D.7XOX|..X.X@X*X].@X+Xm.m.[.OXOX.X`.I.D.x.5.m.M.7.:.#.U M.m.5.7.m.D.Y.`.[..X|.5.Y I v m Q Y ! _ Q _ P.F.q.8.0.0.m.",
"kXkXnX;.4XnXkXkXsXsXkXsXhXwX/.kXkXkXnXnXkXkXkXnX}.Y.CXvXnXnXnXvXnXnXnX1XkXkXvXnXnXkXkXkXkXkXt B S H G B B B B C 7 L.mXnXnXnXvXkX",
"ZXZXHXS.sXLXSXZXHXDXDXHXHXnXoXZXZXZXZXZXZXZXZXHX-XE.IXHXDXDXDXDXDXDXHXoXsXHXZXZXZXZXZXZXZXZXH ) &.&.&.&.&.=.&.&.S =XHXZXZXZXZXZX",
"yXyXiXx.OX4X,X1X,X,X,X-X,X XS.1X1X6X5X5X6X6XyXsXG.9.&X[.}.OXOXOXOX.X[.2.E.5XyXdXdXpXyXyX8XyXl V C ~ Y C m l v Q Y U.dX1X4X0XyX6X",
"P.S.n.n.E.E.E.}.}.}.}.W.E.}.E.2.W.E.[.}. X X}.[.OX^   O o O O $ $ o X . Y }.[.}.}.}.}.}.}.}.E.p D D D D A M M N F g Y.[.[.}.}.}.",
"sXsXsXsX-XmXZXZXZXZXZXZXZXHXsXn.HXZXZXZXZXZXZXZXLXR.= ) H H G G H H H B 2.HXZXZXZXZXZXZXZXZXkX( C.C.C.C.C.C.C.C.Q.[ yXHXZXZXZXZX",
"sXtXsXsX%XnXnXnXnXVXZXZXZXZXwXb.HXZXZXZXZXZXZXZXLXJ.@ Q C H H H H H H x P.HXZXHXZXZXZXZXZXZXkXQ C.C.C.C.C.C.C.C.Q.o.sXHXZXZXHXHX",
"2.l.x.6.9.9.,.,.k.P.n.Y.P.D.;.z x.'.D.Y.,X,X@XOX&XM.@.I.|.|.,.! ] :.#.Y ,.,.M.x.x.n.l.x.l.n.9.:.v.k.:.k.N._.].|.'.M.E.OX.X<XI.;.",
"kXkXkXkXkXkXkXnXU..XkXsXsXhXkXkXsXsXkX;.4XsXsXsXsXdXkXkXnX5X@.oX XoXoXoXoX/././.9.R.-XoXoXoXOX-X-X-X-X@.wXsXsXsXiXsXsXyXyX5XQ &.",
"BXBXBXCXCXCXCXHX}.5XHXZXZXZXZXZXZXZXKXa.kXDXZXZXZXZXZXZXHXsX_ wX4X4X4X4X4X4X4XtXS./.sXwXqXwXqX9XqXqX4Xn.CXDXHXHXHXHXHXHXHXZX2.J.",
"nXnXnXnXvXvXvXvX6X-XaXgXzXzXzXzXgXsXwX,.aXBXBXnXbXzXkXgXbXyX:.oXXX}.XXXX XXX}.~.;./.4X4X4X4X4X,X,X,X6XE.$X4X3X3X4X3X-X3X5XOX2.c.",
"V V m b b b m m l 2.x.m.D.D.D.D.x.x.9.^ I.[.+X+X.X|.{.`.`.Y.x..XY.Y.Y.Y.`.`.`.D.,.x.|.[.[.|.+X.X|.[.{.:.# & $ $ $ $ $ $ = # 6.'.",
"&.&.&.&.&.&.&.1.x /.kXtXtXtXtXtXsXsXsXJ.xXBXnXnXnXBXCXCXHXsXP.HXZXZXZXZXZXZXZXHX4X4XHXCXCXnXnXnXBXCXSX>.H &.&.&.&.&.&.&.*.B k.KX",
"1.1.1.1.1.1.1.a.H oXkXkXsXsXsXsXsXsXsXn.nXHXHXZXHXHXHXDXKXkXE.HXZXZXZXZXZXZXZXHXwXwXHXZXZXSXHXSXZXHXKXb.B ) ) &.&.&.&.&.y.B j.IX",
"Y v # o o o $ 8 = v ^ Q n.P.P.D.k.9.x.] ,.n.P.[.P.M.x.x.n.;.I l.D.Y.[.OX,X-X,X,X[.Y..X&XY.n.E.E.Y.Y.D.;.} 2.u.V l V Q Q ! I 1 p ",
"W.B r ) H H H H Q H H B V J.P.P.J.J.P.R.P.R.2.k.oX/././././.oX}.oX,.OXiXwXyXyXwXyXwX6X4X2.OX%X-X%XOXoX,X4XwX}.k H H H H H H H B ",
"4X&.H y.&.=.-.-.&.=.&.) Q -X-X-X-X-X=XoX#X>XJ.S.sXwXwXwXwXwXqXqXeXP.fXJXZXZXZXZXZXZXZXCXb.sXtXtXtXsXsXtXwXsX/.x 1.&.&.&.&.&.&.*.",
"/.l n 2.2.;.;.;.>.2.z.z.@.oXOXoXoX%X-X-X-X4Xn.n.sX4X,X,X3X4X0XwXsXn.OXhXdXdXdXdXdXsXdXyX2.aXaXaXaXaXyX0XwXBXOXv b.a.u.y.y.y.y.y.",
"#.,.D.[.{.'.`.`.'.+XD.Y.`.x.0.9.9.x.m.D.m.'..X{.{.`.`.`.`.[..X[.,XP.k.x.M.M.n.n.x.x.^ l ] k.k.6.6.6.6.6.,.U.@.Y Y C Y Y C Y Y Y ",
"n.LXZXZXCXZXZXZXCXDXR.J.4X-X-X-X-X-X-X-XoXP.BXnXnXnXCXBXCXBXZXrX3XAXZXZXZXZXZXZXZXKXJ.b.-XoXoXoXoXoXoXoXoX1.y.a.a.a.p.a.a.a.a.a.",
"k.PXZXZXZXZXZXZXZXHX/./.wX4X:X4X4X4X4X4X-Xk.ZXZXZXDXHXDXZXZXAXkXaXZXZXZXSXZXZXZXZXLXJ.s.4X-X-X-X-X-X-X-X-Xb.p.d.a.H.J.V.H.H.H.J.",
"#.}.-XOXY..X.X.X X}.9.;.,.9.2X[.I.I.I.Y.D.5.Y.}.8X}.}.OXOX X[.n.2.D..X}.D.[..X.X}. X,._ S.S.}..X}.}.}.W.D.2.X.;.b.t 8 t t 8 , , ",
"t 8 6 z.yXwXwXwXwXwXiXwXwXP.n.OX}.}.}.}. XOX/./.n.oX,X4X5X6X6X6X4X4X,X@.,X4X5X6X4X4XwX6XwXn.k.iX,X1X,X1X,X4X4X,X}.0 8 r r 0 8 8 ",
") ) x 2.HXZXZXZXZXZXZXZXHXoXJ.kXsXsXsXsXsXtXsXsXP.kXSXZXZXCXZXZXZXZXnXn.ZXZXZXZXZXZXZXZXKX XE.HXnXnXxXxXnXnXnXDX/.H ) ) ) ) J ) ",
"B H c Q mXnXbXkXBXBXnXnXGX XP.sX4X4X5XwXwXaXaX0XE.sXnXnXNXHXnXkXvXvXsX.XkXbXbXbXSXZXVXVXJXE.x.nXkXkXnXnXdXsXyX4XE.V H H H H } ) ",
"6.5.x.9.x.D.D.I.4.0.Y.`.{.[.}.Y.m.0.M.] l T ! L ^ ^ ^ @.@.^ ,.I.I.D.l.M.M.I.I.'.6.b ^ _ ! b 2 z b L L #.`.m.5.T #.x.m.m.0.T 9.[.",
"nXnXnXnXkXkXkXCX5.5XZXnXnXnXnXnXnXnXnXk.a.b.b.b.b.b.b.a.b.V x.JXnXnXnXnXMXnXnXHXz._ R.J.J.J.L.J.J.J.k.^ DXZXZXZXZXZXZXZXHX-XP.HX",
"nXnXnXnXnXnXnXDXk.6XJXDXDXDXSXZXZXZXZXn.b.J.J.J.J.J.J.J.R.;.W.HXZXZXZXZXZXZXZXJXU.1.^.J.J.J.J.K.L.J.b.:.DXZXZXZXZXZXZXZXHX4X}.LX",
"%X%X%X-X-X-X-X,X5..X,X}.}. XOX,X,XOX5X,.@.;.@.:.6.6.,.@.;.@.Y.6X,X5X5X6XyX6X,XwXn.n.W.Y.E.P.U.S.S.E./.D.yXyXyXyXyXuXdXdXdXE.x.&X",
",X&X,X,X,X,XoX_ yX5X,XOXOX%X&X,X4X'.[.yX5X5X5X4X5X5X5X6XD.}.6X,X%X,X,X,X,X,X,X3.,X4X1X5X5X1X,X,X5X}.P.-X}.}.}.}.}.}.}.OX;.k _ Q ",
"ZXZXZXZXZXZXnX2.nXnXZXZXZXZXZXZXDXdX&XHXZXZXZXZXZXZXZXHXOXwXHXZXZXZXZXZXZXZXZXJ.ZXCXCXCXCXZXBXBXDXwXOXxXjXjXjXjXsXjXkXnXP.;.R.J.",
"nXBXBXSXSXZXkXk.SXDXDXJXJXDXSXZXGXyX@XGXnXnXnXnXVXVXZXCX[.sXZXZXSXZXBXBXBXBXBXP.ZXZXZXZXZXZXHXHXLXkXOXnXcXnXnXnXnXkXdXkXS._ J.b.",
"Y.D.n.,.x.M.5.6.P.P.I.I.T.E.}.m.I.F.`.[.I.I.F.F.x.x.[.Y.D.F.`.[.[.{.[.n.x.x.n.D.Y.D.x.x.x.D.,.Y ^ ^ I I Y ! ! ` z :.P.x.2.2.;.@.",
"nXvXmX@.W.4X-X>X-X%X%X%X%X}.E.cXvXnXnXlXnXnXnXZXoX XnXkXnXkXkXkXkXkXnXS.oXwX4XwX4X4X4X4X4X-Xv &.&.&.1.1.1.&.&.1.8 P.SXnXnXnXnXnX",
"ZXZXHX2.-XkXwXwXwXrXwXwXwX,X/.SXZXZXZXZXZXZXZXHX-XOXKXZXZXZXZXZXZXZXHXR.4XkXsXtXsXfXsXsXjXyX) b.b.b.b.b.b.b.b.J.B }.LXZXZXCXZXZX",
"yXwX5Xm 2.P.R. XOXE.W.W./.U.n.4XyXdXcXsXwXwX5XwXk.>.1X6XyXdXiXdXdXhXiXP.P.}.OX5X4X}. X}.U.k.l ) ~ Q _ 1.@.>.;.+.8 D.iX8XyXdX,X,X",
"k.k.2.2.>.;.,.,.l 3.k.x.x.z.S.x.S.U.x._ 1.3.2.2.1._ +.;.2.m Y. X X.X}.OX}.}. XOXP.P.U.U.D.S.Y.P.U.U.3.8 s s s w e s e s j 9 q l ",
"-X-X-X-X-X-X-X)._ wXwXwXwXwXwXwXwXsXR.2.-X(.).).).oXoXoX=X_ kXDXZXZXZXCXZXZXZXzXOXkXkXkXkXkXkXkXkXnXoXZ g.i.i.i.i.i.i.i.f.f a.b.",
"-X-X-X-X-X-X-XoX>.wXwX6X9X4XqXwXwXsXS.;.,XOXOX-X-XoXoXoX-XQ sXDXZXDXSXZXZXZXZXnX5XnXnXnXnXnXnXnXnXGX-Xa i.r.r.r.r.r.r.r.r.g 1.b.",
"I.I.I.`.`.`.I.7.@.$.,.9.9.6.6.>.>.$.~ m ^ ] ! Y Y I Y Y I l ,.x.n.D.P.Y.Y.D.x.:._ ;.@.:.;.] ! _ :.6.I.l b ^ ] ;.;.( ! ! I b M.I.",
"kXkXkXkXkXkXnXoXA.nXkXkXkXkXkXkXkXnXJ.H a.1.2.1.1.1.1.1.1.V  X/.R.R.E.W./.E./.3.@ V v n B B B B n x m sXnXvXvXcXkXcXvXvXvXk.5X4X",
"BXBXBXnXBXBXDX,Xn.SXnXnXnXnXnXnXnXDX/.O.J.b.b.b.b.b.b.b.a.B 4X4X4X4X4X4X4X4XwXR.8 1.&.) ) ) ) { { &.Y sXBXBXnXnXnXnXnXBXCXP.kXkX",
"cXcXnXnXnXmXnXOXY.FXcXnXnXmXmXmXmXZXOXa.R.P.P.J.P.P.P.T.J.x /.oXoX#X$X$X#XoX$Xb.8 &.&.&.&.1.1.&.&.) ^ sXkXdXkXkXnXnXcXkX6Xk.9XwX"
};
