/* XPM */
static char *result[] = {
/* columns rows colors chars-per-pixel */
"64 64 234 2 ",
"   c #010101",
".  c #050A05",
"X  c #080C07",
"o  c #0C0908",
"O  c #140C09",
"+  c #0B1309",
"@  c #0E1C0C",
"#  c #15110F",
"$  c #131E0D",
"%  c #0F1F10",
"&  c #171912",
"*  c #2B1105",
"=  c #371608",
"-  c #221B18",
";  c #13210E",
":  c #082D14",
">  c #152312",
",  c #172B14",
"<  c #1B2C15",
"1  c #083517",
"2  c #1C3419",
"3  c #1B3C1B",
"4  c #3D270B",
"5  c #2C241B",
"6  c #3A2611",
"7  c #24371B",
"8  c #1B3C25",
"9  c #282926",
"0  c #352B26",
"q  c #283A29",
"w  c #383829",
"e  c #4E290E",
"r  c #553B17",
"t  c #6E2E0C",
"y  c #6E2E0F",
"u  c #64340F",
"i  c #673917",
"p  c #723413",
"a  c #46382A",
"s  c #4E392D",
"d  c #6F3D22",
"f  c #0C4319",
"g  c #1A481C",
"h  c #27431D",
"j  c #054221",
"k  c #1A4529",
"l  c #175527",
"z  c #1B5031",
"x  c #234521",
"c  c #294726",
"v  c #2C4A23",
"b  c #334C23",
"n  c #36492D",
"m  c #295626",
"M  c #2D532A",
"N  c #33532D",
"B  c #3B562C",
"V  c #335829",
"C  c #3C5A2C",
"Z  c #3A4D37",
"A  c #3A5936",
"S  c #22682B",
"D  c #3A652C",
"F  c #336C2C",
"G  c #36712E",
"H  c #3D6633",
"J  c #356C30",
"K  c #3A7733",
"L  c #46441B",
"P  c #534B1D",
"I  c #634B1D",
"U  c #61511E",
"Y  c #4A4928",
"T  c #584328",
"R  c #495824",
"E  c #48473B",
"W  c #554339",
"Q  c #425A35",
"!  c #684225",
"~  c #7B492B",
"^  c #6F4936",
"/  c #7C533D",
"(  c #4B6E2F",
")  c #536428",
"_  c #476B39",
"`  c #516D3E",
"'  c #477836",
"]  c #4B743B",
"[  c #3A4F41",
"{  c #4D4D47",
"}  c #584C43",
"|  c #435E46",
" . c #57594B",
".. c #6B5748",
"X. c #765949",
"o. c #70584D",
"O. c #4A6548",
"+. c #526747",
"@. c #4D7647",
"#. c #577B47",
"$. c #4B6A54",
"%. c #5A6A56",
"&. c #5B735B",
"*. c #69734E",
"=. c #676956",
"-. c #786454",
";. c #667A5A",
":. c #787355",
">. c #657B65",
",. c #687B62",
"<. c #72706A",
"1. c #75776C",
"2. c #884E30",
"3. c #975B3C",
"4. c #955F40",
"5. c #856B57",
"6. c #956850",
"7. c #A67356",
"8. c #8A7566",
"9. c #997966",
"0. c #847B72",
"q. c #A57C63",
"w. c #468439",
"e. c #478A3E",
"r. c #5A823D",
"t. c #4B943E",
"y. c #4D8A42",
"u. c #4D9842",
"i. c #539046",
"p. c #5C8954",
"a. c #658948",
"s. c #688657",
"d. c #718C59",
"f. c #7FA35C",
"g. c #6C8368",
"h. c #768F6F",
"j. c #779267",
"k. c #6F8679",
"l. c #748373",
"z. c #7B8878",
"x. c #96826F",
"c. c #858877",
"v. c #85967B",
"b. c #A9846B",
"n. c #B38D6C",
"m. c #AB8B73",
"M. c #A88974",
"N. c #B78D73",
"B. c #A59171",
"V. c #B8967B",
"C. c #88A66B",
"Z. c #89A270",
"A. c #C18E72",
"S. c #C4987B",
"D. c #778F83",
"F. c #7B9287",
"G. c #878682",
"H. c #899788",
"J. c #8B958A",
"K. c #96968B",
"L. c #969B96",
"P. c #AE9684",
"I. c #A79C96",
"U. c #96A78D",
"Y. c #9BA597",
"T. c #9FB697",
"R. c #A0AF8C",
"E. c #BDA28A",
"W. c #A1A59E",
"Q. c #A4AE9C",
"!. c #B5A396",
"~. c #A3B297",
"^. c #ABA7A5",
"/. c #A5ACA3",
"(. c #AAABA5",
"). c #B6ACA2",
"_. c #ABB3A4",
"`. c #ACB4AA",
"'. c #B6B6A9",
"]. c #B5B7B2",
"[. c #BCBAB6",
"{. c #BEBDBA",
"}. c #C39E84",
"|. c #CB9E82",
" X c #CBA286",
".X c #C5A489",
"XX c #CAA48A",
"oX c #D3A78A",
"OX c #D9AC8D",
"+X c #C7A993",
"@X c #D6AE91",
"#X c #DDB395",
"$X c #DDB799",
"%X c #E2B595",
"&X c #E3B699",
"*X c #E4BA9B",
"=X c #EBBD9E",
"-X c #C8B6A6",
";X c #D5BBA6",
":X c #C3BBB3",
">X c #C1BEBB",
",X c #E8BFA1",
"<X c #BAC8A8",
"1X c #BBC5B7",
"2X c #F3C39E",
"3X c #D5C0AC",
"4X c #C4C1BE",
"5X c #C7CABD",
"6X c #D1C9BE",
"7X c #F4C5A3",
"8X c #F9C6A5",
"9X c #F7C8A5",
"0X c #FAC9A6",
"qX c #F6CAA9",
"wX c #FCCCA9",
"eX c #F4D4BA",
"rX c #C3BFC1",
"tX c #C6C4C2",
"yX c #C9C6C3",
"uX c #C7CAC7",
"iX c #CBC9C6",
"pX c #C9C7C8",
"aX c #CDCCCA",
"sX c #D2CBC5",
"dX c #D0CFCC",
"fX c #CFD1CC",
"gX c #D2D1CE",
"hX c #D8D3CC",
"jX c #D5D4D2",
"kX c #D8D7D5",
"lX c #D8D7D6",
"zX c #D9D8D6",
"xX c #DBDAD9",
"cX c #E2E1E0",
/* pixels */
"tXpXtXpXtXpXtXtXpXtXtXpXrXpXrXrXpXpXpXpXpXpXpXpXpXpXpXpXpXpXrXrXiXiXyXyXpXiXtXuXuXyXuXyXuXiX4XtXjXjXjXgXjXjXjXgXjXjXjXjXjXjXpXiX",
"tXtXtXtXpXtXtXtXrXpXtXpXpXrXuXrXpXpXpXpXpXtXpXpXpXpXpXpXpXpXrX>XyXyXyXyXyXpXyXuXyXiXyXuXtXiX4XtXjXjXjXjXjXjXjXjXjXjXjXjXjXjXdXiX",
"pXpXpXtXtXtXtXuXpXpXpXtXtXtXrX4XiXiXiXdXdXdXaXaXpXaXaXaXpXaXyXsXyXyXpXyXtXtXtXtXyXyXyXtXtXtX{.iXjXgXjXgXdXdXgXgXdXgXgXgXdXjXiXtX",
">X{.{.pXtX5XtXyXtXpXtXtXtXtX5XtX>X>XtX4X>X>X>X[.>X[.[.[.>X>X:X>X{.[.[.tXyXyXyXyXyXyX4XyXtXyXyXyXyX5X4X4XtX>XtX>XrXtXtXtXtX4XtX>X",
"tXtX4XaXlXjXjXjXjXlXjXjXlXjXlXjXkXjXgX>XrXrXrXtXrXrXrXsXrXrXrXrXrXtX{.aXxXjXjXjXkXjXjXkXjXjXlXjXkXkXpXaXjXjXgXjXjXgXjXgXhXgXgXjX",
"yXpXtXaXjXjXjXjXjXjXjXjXjXjXjXjXjXkXdXrXyXtXtXtXyXrXyXrXrXsXyXyX].v.Y.fXjXjXjXjXjXjXjXjXjXjXjXjXjXjXyXaXjXdXjXgXgXgXgXgXgXgXgXgX",
"tXtXtXpXjXjXjXjXjXjXjXjXjXjXjXjXjXjXkX>XyXrXtXtXrXrXyXrXrXrXrXrXY._ g.5XjXgXjXjXgXgXgXjXjXjXjXjXjXjXyXdXgXdXgXdXgXgXgXgXgXgXgXgX",
"pXaXtXuXxXjXkXkXlXlXlXjXlXlXjXlXkXjXhX>XyXyXtXyXpXyXyXyXyXyXsXyXH.] ] Q.xXlXlXxXxXkXxXkXkXkXjXkXkXkXaXaXgXjXjXjXjXjXjXjXjXgXjXjX",
"4X4X4X4XyXyX4XtX4X5XtXiXyXyXyXyXtX>X{.{.>X>X>X>X>X>X>XtXtX{.>XtXv._ V ,.].iXiXtXiX1XT.<XyX5X4X4X5XyXyX>X4X4XtXtXrXtX4XtXtX4X4X4X",
"hXgXkXgXgXgXjXjXjXjXgXpXdXaXdXdXdXaXdXdXaXdXaXjX(.(.jX[.tXtXtXtXv.C 7 B h.1XtX{.tXU.s._.lXfXgXgXdXdXdXgXdXgXdXaXdXgXiXtXjXdXjXgX",
"kXkXgXkXkXjXjXjXjXjXjXyXdXgXgXgXgXgXgXgXdXjXdXjX/.%.U.{.tXpXiX1Xj.M $ 7 #.T.uXpX1Xj.p.`.lXfXfXjXjXjXjXgXjXjXjXjXjXjXaXtXkXjXjXkX",
"jXjXkXgXkXgXjXjXjXjXfXuXdXdXgXdXdXgXdXaXdXdXdXdXtX;.A h.].pXtX1Xs.h + > C h.].uXU.a.] _.lXfXjXhXgXdXjXgXgXdXgXjXjXdXaXyXjXjXgXjX",
"jXkXkXkXkXjXkXkXkXkXjXaXgXjXjXgXjXjXjXgXjXgXjXjXjXH.M N g.].pX`.s.g .   b ] Z.5Xj.b _ ~.kXgXfXfXjXkXjXjXjXjXkXjXkXkXgXaXkXkXkXkX",
"jXjXjXjXjXkXdXgXdXjXjXaXiXaXdXgXdXjXgXjXdXjXaXaXaX`.O., v &.(._.#.3 .   > D s.h.` < C R.iXgX3Xv.[.jXgXjXjXjXaXgXaXaXyXpXdXdXaXdX",
"aXaXaXaXaXdXiXaXaXdXaXaXaXaXaXaXaXaX[.].yX4XiXaXiXiXh., @ h #.,.` <       b ] ] h + B C.5X_.d.r.'.aXiXiXpX{.{.4X>X>X>X{.1X{.>X>X",
"jXkXjXjXjXdXjXkXjXkXkXjXkXjXkXkXjXxX/.O.%.l.U.1XgXxX(.Z . + q H _ ,       $ ( ' > o b C.<Xf.r.f.5XxXjXlXjX>XpXtXpXtXpXpXpXtXpXiX",
"jXjXgXjXjXdXgXjXlXgXlXjXjXjXkXgXhXxX1X&.3 v N O.>.z.K.O.@   + v H >         v v X . B a.d.#.( C.5XzXhXjXjX>XtXyXtXpXtXtXuXtXuXtX",
"jXjXkXkXjXdXgXjXgXlXjXjXjXjXgXkXjXgXxXW.A 3 ; % 2 c A H q .   + < +         + +     Q r.r.B C Z.uXfXfXlXjX>XtXtXuXtXuXtXtXyXuXpX",
"dXgXgXgXgXgXdXgXhXgXlXjXgXgXlXgXjXgXkXiXl.x > . . . + < < X                         B a.Q $ R U.R.R.fXhXjX>XyXyXyXtXiXtXiXtXyXtX",
"iXyXyXyXyXiXiXaXiXiXiXiXiXdXaXaXiXdXiXfX/.O.3 +                                     B ( $ $ ` j.;.~.fXfXaXaXtX>XtX4XtX>X4X4X4X>X",
"jXlXjXlXjXkXiXaXlXgXlXgXjXjXgXkXjXkXkXjXaXz.m ,                                     7 >   7 ` ( d.5XxXgXjXjXtXtXaXpXpXaXpXpXaXpX",
"jXjXjXjXjXkXiXaXkXgXgXlXjXjXkXgXjXgXaXjXjX].&.g @                                   .     h r.( v.iXlXhXjXjXtXpXaXpXpXaXpXpXaXpX",
"jXjXjXjXjXkXiXfXgXlXlXgXjXjXgXkXuXL.1.F.J.Y.;.m 2 .                                       C Q A Q.kXgXgXjXjX5XtXpXpXpXpXpXpXpXpX",
"jXjXjXjXgXjXiXiXlXkXgXkXjXlXkXkXzXY.Z c c N N N m >                                     + h < %.5XzXkXkXjXxXtXpXdXdXaXaXaXaXaXdX",
"iXiXiXyXuXtX5X>X>XyXyXyX4XaXiXaXaX>X1.m k @ @ , 3 >         o # o   - -                 o + 5 c.4XtXtXyXyX4XtXdXpXaXpXpXpXaXpXdX",
"gXgXjXgXgXjXjXjXjXjXgXgXgXyXgXgXgXjX{.&.x , .     .         o s 8.W W 8.W O     . a 0 # o   w (.dXdXdXdXgXdXdXdXgXaXdXgXpXrXgXgX",
"lXjXjXjXjXjXjXjXjXjXkXjXjXtXjXjXjXjXjX(.O.x %             o # a }.,X.X&X$X5.- O o..Xm...& o =.>XgXgXgXgXgXdXgXdXgXgXgXgXiXiXkXkX",
"jXgXjXjXjXjXjXgXjXjXjXjXgXtXgXjXjXjXjXjXJ.A 8 +         o & -.M.@XwX0X8X0X7Xm.9.$X9X7XE.} 5 c.sXdXdXgXdXgXgXgXdXgXgXdXgXpXpXjXgX",
"lXlXxXkXkXlXlXlXkXkXkXkXkXtXxXkXlXlXlXzXuXk.M 2 .       - } m.,XV.}.7X7X7X0X9X9X8X8X8XqX}...(.kXgXjXjXgXgXgXgXgXgXgXjXjXdXaXkXkX",
"iXiXaXaXaXaXaXaXaXiXiXyXtXtXiXaXpXfXgXaXaX].&.v ,       # -.%XoXN.b. X7X7X2X7X7X8XwXOXS. XV.].aXiXiXiXaXaXiXaXiXaXiXiXiXdXtXtXtX",
"iXiXiXiXiXiXiXiXiXiXiXiXiXtXiXiXaXaXaXaXaXgXW.O.h %     - o.@X=X&XXXb..X8X0X8X2XwX@XM.M.N.+XsXaXiXiXiXdXaXdXdXaXaXaXaXaXyXrX>X>X",
"jXgXjXjXjXjXjXjXjXjXgXjXgXiXkXjXjXlXlXjXkXjXfXJ.A 3 X   5 V.qX}.5.o.....V.7X7X0XOXX....XXX;XhXkXkXkXkXjXkXjXjXjXkXjXkXkXdX>XyXiX",
"jXaXgXdXgXgXgXgXgXgXgXgXgXiXjXjXjXjXjXhXjXjXgXdXz.b a 9 s |.|...} 0 0 { -.}.=X=XX.0 ..5.m.3XhXlXjXgXgXlXjXjXgXjXjXgXgXjXdX4XtXuX",
"jXjXjXjXjXgXjXjXgXjXgXjXgXpXjXlXjXkXjXkXjXkXjXcX!.x.P.P.@X=X8.<.{   =.).9.m.7X,Xa { ).8.5.-XhXkXlXjXjXkXkXkXjXkXjXkXjXxXgX4XiXtX",
"iXpXdXgXaXfXfXaXgXaXaXaXaXiXaXaXdXjXjXgXdXgXdXdX;X}.q.q.$X$X9.K.{   E 8.M.=XwX%Xs 9 0.0.X.V.hXgXjXjXhXfXgXgXgXgXgXgXgXgXpX4XtXtX",
">X{.{.4XtXtXrXtX4X4X4X4X4XtX>X4X4X>XtXtXtXtX>XsX;X XN.7.|.%XP.^.X.* * e q.7XwX%X^ O ^ 0.9.n.:XiXyXyXtX5XtXtXyXtXyXyXyXyXtXyXiXiX",
"iXiXtXpXgXdXgXgXgXgXfXgXdXgXjXjXdXjXiXaXgXgXjXhX-XoXN.6.XX7X+X6Xb.p p 2.oX8X8X=X6.e 4..Xn.S.6XkXjXjXiXjXjXjXjXjXjXjXjXjXjXgXjXgX",
"tXuX4XiXgXaXaXdXaXfXaXaXfXaXaXaXaXaXpXdXgXgXgXgX:X!.m.5.|.wX8XeX;X7.3.N.7X8X8X#Xn.4.S.&Xb.E.sXjXjXgXiXdXjXaXjXjXjXaXjXaXgXjXgXgX",
"uXtX>XiXaXaXaXaXaXpXaXdXaXaXaXaXaXaXtXaXdXdXdXdXhX>X).!.+X@X=X8XwX=X&X7X9X7X7XOX#X=XwX@XB.'.kXjXjXjXiXdXfXdXjXaXaXjXfXjXgXgXgXgX",
"aXaXtXaXgXjXjXjXjXjXjXjXgXjXjXjXjXgXyXjXjXjXjXjXjXjXkXcXsX!.+X,XwX0X0X7XOXOX=X8X0X8X=X}.-XhXkXkXkXgXiXjXkXjXjXjXjXjXkXjXjXjXjXkX",
"iXiXaXyXyX4XyXyXyXtXyXyXyXyXiXiXdXiXyXiXiXyX4XyXtXyXyXyXiXjX[.P. X=X8X=X@X$X0X0X=X#X.X).4X5X4X4X4X>XtXyXyXyXtXtXtXtXtXyX5XtXtXyX",
"4XdXaXaXdXdXdXdXfXaXdXaXdXdXaXiXaXkXjXjXjXjXjXhXjXjXjXjXjX{.H.[ r 7.A.oX#X#X XB.P.'.6XkXgXjXjXaXtXaXaXaXaXaXaXaXaXaXaXaXaXaXaXyX",
"yXdXdXjXaXgXdXgXgXgXdXgXdXdXgXpXaXjXjXjXjXjXjXjXjXjXzXpX(.$.S M 7 P ! ~ 2.~ P m H.fXjXjXjXjXkXaXtXdXdXdXdXdXdXdXaXgXgXgXgXgXdXaX",
"tXdXaXaXfXgXaXaXaXaXgXgXdXaXdXiXyXjXjXjXjXjXjXjXjXdX].1.Z A y.K F w.r.R t u ( G @.Q.gXjXjXjXjXaXtXdXdXaXaXdXaXdXdXaXaXaXaXaXdXpX",
"yXgXgXjXjXgXgXgXgXgXgXgXgXgXgXiXiXzXkXkXkXkXxXkXjXI.{ & *.oXB.Q F t.t.w.I u w.K K p._.jXlXjXxXaXtXjXdXgXgXgXgXgXgXdXgXgXgXgXdXaX",
"tXtX4X4XtXjXgXdXdXaXdXiXdXaXgXiXiXaXiXaXgXdXiXiXI.s = / oX7X.X5.+.y.t.w.I t ( K ' w.h.1XfXiXiXiX4XyXiXiXaXdXdXdXdXdXgXdXdXdXaXiX",
"gXgXgXdXaXiXaXaXaXiXaXaXaXsXiXgXaXaXaXaXiXiXaXjX0.= d A.0X&XN.b.*.R ' e.I t R D G t.w.c.4XfXfXfXgXaXdXdX5XyXdXdXdXdXdXdXdXdXdXdX",
"jXjXjXjXdXiXjXgXjXgXgXjXgXgXkXgXgXgXgXjXaXiXkXxXG.= 2.OXwX*XV.6.i r ( e.U t r e R e.) T I.jXjXjXjXkXjXkXyXaXkXjXjXjXjXjXgXjXjXjX",
"jXjXjXjXdXiXgXgXgXgXgXgXgXgXgXgXdXjXdXgXpXpXjXkX].-.^ N.=XN.X.T Y ' u.e.I t ) L L T r 4 -.4XkXjXjXjXgXkXtXaXjXjXgXgXjXgXjXjXgXgX",
"jXkXjXkXiXyXjXgXgXjXgXgXjXgXjXjXgXjXjXjXiXaXjXkXjXsX^.I.!.-.5 7 b ) ) ) I t P b 6 4 6 e ! !.jXjXkXkXjXxXtXaXkXkXkXjXkXjXjXjXkXjX",
"jXjXkXkXhXdXgXdXdXdXaXdXdXaXaXdXdXdXgXaXiXgXgXgXjXhXkXdXiXK.Y 4 e r ! i y d P a  .a i 3.q.P.yXkXgXjXgXdXtX5XfXaXdXdXdXdXhXdXdXdX",
"iXdXiXaXaXdXdXaXiXaXsXiXiX4X4X4X4XtX5X4XyXyX5X4XtX4XyX4X4XH._ D D ' *.=. .;.] _ K.9.q.%X8XP.).yX4XtX4X4XtX4X4X4X4X4X4X4X>XiXiXiX",
"kXjXjXjXkXjXjXjXjXkXlXlXdXyXaXiXaXaXaXaXaXaXaXiXdXiXaXaXY.O.F ' w.e.i.#.#.p.u.K ,.8.}.7X%XV.[.dXdXaXaXaXaXaXaXaXaXaXaXaXtXdXkXjX",
"jXjXjXjXjXjXjXjXjXjXjXjXdX4XpXaXaXpXpXaXiXpXiXdXaXiXpXaXF.B D F G w.K M F K K F N E 9.XXV.!.5XaXiXaXiXaXaXaXaXaXpXaXaXaXtXdXjXjX",
"jXkXjXkXjXjXjXjXjXjXjXkXdX4XaXaXpXaXpXaXpXaXpXpXyXpXaXaXL.<.:.#.J F @.+.H F _ ] M  .L.).'.4XaXiXaXaXaXaXpXaXaXaXaXaXaXaXtXdXjXjX",
"gXgXjXgXgXjXjXjXjXjXjXjXaXtXiXiXyXiXiXyXaXiXiXiXaXyXaX/.,.:.m.:.A J z.J.Q C :.-.n | /.jXaXtXgXfXaXdXaXaXaXfXaXaXaXaXdXdXiXdXkXkX",
"yXyXyXiXyXiXiXiXiXiXyXiXiXiXiXiXyXsXyXyXiXaXiXiXiXtXtXk.l G O.| %.1.`.].D.$. .@.K l g.].aXaXpXaXiXdXdXiXiXyXaXiXaXaXaXgXiXaXaXaX",
"jXjXjXkXjXjXjXjXjXjXgXiXkXjXgXkXjXjXkXjXjXjXkXjXjXzX1X$.m K S l D.gXfXjXjX1.l S K V O.`.zXgXjXjXjXgXjXjXjXjXjXjXjXkXiXaXgXgXgXhX",
"jXjXjXjXjXjXjXjXjXjXgXiXkXgXkXgXjXjXjXjXjXjXjXjXjXaXF.q w b l l J.lXjXjXlXF.z l n w q z.gXxXjXjXjXjXjXjXjXjXjXjXjXjXaXgXjXjXgXgX",
"jXjXhXjXjXjXjXjXjXjXgXiXjXkXgXkXjXjXjXjXjXjXjXjXdXL.q 1 7 N l $.{.lXgXjXjX].O.l N q 1 k 1.pXkXjXjXjXjXjXjXjXjXjXjXjXaXgXgXgXgXgX",
"kXkXkXkXkXkXkXkXjXkXgXaXkXjXjXjXkXjXjXkXjXkXlXzX^.[ : j : f l D.kXjXjXkXjXzXk.l 1 1 1 1 : J.jXkXkXkXkXjXjXlXxXkXkXzXgXdXjXjXjXjX",
"iXiXiXiXiXdXyXyXiXiXiXsXaXsXiXiXyXaXyXaXiXtXrXdXG.q k k 8 8 [ Y.iXiXiXuXpXpXF.[ 8 8 z k 8 1.4XyX4XiX4XyXiXyX4X5XtXtXtX5X4X4X4X4X",
"dXdXdXpXdXiXdXdXdXjXgXgXgXgXgXgXgXgXgXgXgXtXdXgXgXpXaXaXiXaXgXgXgXgXjXgXgXtXfXaXiXiXiXiXiXpXdXaXaXgXhXgXiX{.tXtXtXtXtXtXtXtXyXtX",
"dXdXjXdXdXaXjXkXjXjXjXkXkXjXjXkXjXjXkXkXjXpXjXlXlXlXlXlXkXxXjXjXjXjXjXjXjXuXgXjXjXjXgXjXjXjXgXjXgXgXgXgXaX4XpXaXpXiXiXaXpXaXpXiX"
};
